<?xml version="1.0" standalone="no"?>
<!DOCTYPE svg PUBLIC "-//W3C//DTD SVG 20010904//EN"
 "http://www.w3.org/TR/2001/REC-SVG-20010904/DTD/svg10.dtd">
<svg version="1.0" xmlns="http://www.w3.org/2000/svg"
 width="1024.000000pt" height="1024.000000pt" viewBox="0 0 1024.000000 1024.000000"
 preserveAspectRatio="xMidYMid meet">

<g transform="translate(0.000000,1024.000000) scale(0.100000,-0.100000)"
fill="#000000" stroke="none">
<path d="M0 5120 l0 -5120 5120 0 5120 0 0 5120 0 5120 -5120 0 -5120 0 0
-5120z m4143 4479 c6 -9 7 -24 4 -33 -10 -24 -42 -19 -57 10 -12 22 -12 27 0
35 20 12 41 8 53 -12z m1022 -99 c3 -5 1 -10 -4 -10 -6 0 -11 5 -11 10 0 6 2
10 4 10 3 0 8 -4 11 -10z m5 -40 c0 -5 -4 -10 -10 -10 -5 0 -10 5 -10 10 0 6
5 10 10 10 6 0 10 -4 10 -10z m885 -64 c27 -40 -9 -78 -43 -44 -21 21 -7 68
20 68 4 0 14 -11 23 -24z m-440 -41 c0 -25 -4 -30 -24 -30 -28 0 -47 25 -38
49 5 12 16 16 34 14 24 -3 28 -8 28 -33z m-445 9 c0 -8 -4 -12 -10 -9 -5 3
-10 10 -10 16 0 5 5 9 10 9 6 0 10 -7 10 -16z m1415 -168 c0 -151 -2 -176 -15
-174 -13 3 -15 31 -16 173 -1 94 1 174 3 178 3 4 10 6 16 4 9 -3 12 -55 12
-181z m335 78 c0 -72 -3 -95 -12 -92 -13 5 -24 157 -14 185 14 36 26 -7 26
-93z m-1744 29 c-7 -7 -26 7 -26 19 0 6 6 6 15 -2 9 -7 13 -15 11 -17z m68
-39 c26 -26 19 -64 -16 -77 -37 -13 -66 62 -30 82 23 14 28 14 46 -5z m-1116
-66 c19 -19 15 -48 -7 -48 -20 0 -37 32 -26 50 8 13 18 13 33 -2z m2347 -149
c7 -22 -10 -49 -31 -49 -8 0 -19 12 -25 27 -8 22 -7 30 6 40 21 15 42 7 50
-18z m-2158 -51 c1 -21 -3 -28 -16 -28 -22 0 -41 19 -41 43 0 14 6 18 27 15
22 -2 28 -9 30 -30z m1911 -20 c15 -15 15 -51 0 -66 -9 -9 -16 -8 -30 5 -21
18 -24 59 -5 66 19 8 22 8 35 -5z m677 -21 c0 -26 -20 -25 -23 2 -3 16 1 22
10 19 7 -3 13 -12 13 -21z m-1115 -37 c0 -16 -4 -30 -10 -30 -5 0 -10 14 -10
30 0 17 5 30 10 30 6 0 10 -13 10 -30z m-2796 -13 c21 -16 18 -60 -4 -65 -9
-1 -24 4 -35 12 -17 12 -18 17 -7 40 13 29 21 32 46 13z m4446 -57 c0 -5 -5
-10 -11 -10 -5 0 -7 5 -4 10 3 6 8 10 11 10 2 0 4 -4 4 -10z m-3561 -16 c31
-7 42 -28 18 -37 -26 -10 -67 5 -67 24 0 21 3 22 49 13z m804 -47 c-3 -5 -10
-4 -15 1 -6 6 -7 16 -3 22 6 9 9 9 16 -1 4 -7 5 -17 2 -22z m-714 -3 c3 -16 1
-17 -13 -5 -19 16 -21 34 -3 29 6 -3 14 -13 16 -24z m2877 -32 c18 -12 24 -42
13 -63 -23 -43 -86 2 -68 49 8 22 34 29 55 14z m-1156 -68 c0 -16 -16 -19 -25
-4 -8 13 4 32 16 25 5 -4 9 -13 9 -21z m335 -19 c0 -29 -4 -40 -15 -40 -11 0
-16 13 -18 43 -3 38 -1 43 15 40 14 -2 18 -13 18 -43z m49 29 c11 -4 16 -19
16 -45 0 -32 -3 -39 -20 -39 -17 0 -20 7 -20 45 0 48 0 48 24 39z m-3144 -24
c0 -5 -4 -10 -10 -10 -5 0 -10 5 -10 10 0 6 5 10 10 10 6 0 10 -4 10 -10z
m4260 -25 c25 -30 -16 -79 -46 -54 -15 12 -19 51 -7 62 11 12 40 8 53 -8z
m-532 -19 c2 -10 -1 -23 -7 -29 -15 -15 -46 16 -37 38 8 21 40 15 44 -9z
m-1450 -79 c2 -12 -3 -17 -17 -17 -15 0 -21 6 -21 21 0 25 33 22 38 -4z m952
-2 c0 -8 -4 -15 -10 -15 -5 0 -10 7 -10 15 0 8 5 15 10 15 6 0 10 -7 10 -15z
m58 -162 c3 36 26 31 30 -6 3 -23 0 -27 -22 -27 -26 0 -26 0 -26 85 0 76 -2
84 -17 79 -17 -5 -17 -5 0 9 9 8 18 20 19 28 1 8 5 -33 8 -91 3 -58 7 -92 8
-77z m1262 157 c0 -11 -7 -20 -15 -20 -8 0 -15 9 -15 20 0 11 7 20 15 20 8 0
15 -9 15 -20z m-1360 -15 c0 -8 -4 -15 -10 -15 -5 0 -10 7 -10 15 0 8 5 15 10
15 6 0 10 -7 10 -15z m1555 -30 c0 -39 -31 -48 -41 -11 -7 30 2 48 24 44 11
-2 17 -13 17 -33z m-4060 -15 c0 -27 -22 -39 -31 -16 -8 22 3 49 19 43 6 -2
12 -14 12 -27z m4333 -87 c2 -66 -1 -103 -8 -103 -6 0 -10 31 -10 79 0 92 -5
111 -30 111 -11 0 -22 5 -25 11 -5 7 6 9 31 7 l39 -3 3 -102z m-3288 48 c7
-15 6 -23 -5 -35 -8 -8 -15 -21 -15 -28 0 -7 -8 2 -16 19 -9 18 -14 39 -10 48
8 21 33 19 46 -4z m1360 -35 c-14 -14 -24 0 -16 21 6 15 8 15 16 3 6 -9 5 -19
0 -24z m2330 14 c0 -11 -7 -20 -15 -20 -8 0 -15 9 -15 20 0 11 7 20 15 20 8 0
15 -9 15 -20z m-4132 -34 c3 -12 -1 -17 -10 -14 -7 3 -15 13 -16 22 -3 12 1
17 10 14 7 -3 15 -13 16 -22z m1002 -40 c0 -23 -22 -41 -34 -29 -3 4 -6 17 -6
30 0 16 6 23 20 23 14 0 20 -7 20 -24z m2009 -2 c44 -9 39 -24 -9 -24 -29 0
-40 4 -40 15 0 17 4 18 49 9z m-3904 -34 c-5 -8 -11 -8 -17 -2 -6 6 -7 16 -3
22 5 8 11 8 17 2 6 -6 7 -16 3 -22z m2203 7 c2 -12 -3 -17 -17 -17 -15 0 -21
6 -21 21 0 25 33 22 38 -4z m262 -7 c0 -11 -4 -20 -10 -20 -5 0 -10 9 -10 20
0 11 5 20 10 20 6 0 10 -9 10 -20z m427 -77 c-2 -16 -4 -3 -4 27 0 30 2 43 4
28 2 -16 2 -40 0 -55z m-1077 27 c0 -28 34 -26 48 3 10 21 11 20 11 -10 1 -35
-9 -39 -56 -27 -16 4 -23 14 -23 30 0 13 5 24 10 24 6 0 10 -9 10 -20z m120
-20 c0 -5 -2 -10 -4 -10 -3 0 -8 5 -11 10 -3 6 -1 10 4 10 6 0 11 -4 11 -10z
m1525 -35 c-1 -33 -5 -41 -22 -43 -17 -2 -22 4 -27 33 -8 43 -1 57 27 53 19
-3 22 -9 22 -43z m-682 -5 c9 -18 11 -30 5 -32 -6 -2 -14 -22 -18 -43 l-8 -40
-1 38 c-1 25 -6 37 -16 37 -11 0 -15 -18 -18 -82 -3 -72 -3 -69 -4 27 -1 61 1
113 4 118 11 17 43 5 56 -23z m1087 10 c11 -20 -1 -60 -18 -60 -14 0 -32 23
-32 40 0 17 18 40 32 40 4 0 12 -9 18 -20z m-1272 -13 c4 -21 -27 -35 -38 -17
-12 19 0 42 19 38 9 -2 17 -11 19 -21z m-1118 -11 c0 -14 -4 -27 -9 -30 -22
-14 -59 23 -45 45 3 5 16 9 30 9 19 0 24 -5 24 -24z m1417 -18 c-3 -7 -5 -2
-5 12 0 14 2 19 5 13 2 -7 2 -19 0 -25z m-2239 -31 c2 -10 -3 -17 -12 -17 -9
0 -16 2 -16 4 0 2 -3 12 -6 21 -5 13 -2 16 12 13 10 -2 20 -11 22 -21z m2692
7 c0 -16 -43 -26 -51 -12 -4 7 -6 15 -3 19 7 11 54 5 54 -7z m-2630 -20 c0 -8
-4 -12 -10 -9 -5 3 -10 10 -10 16 0 5 5 9 10 9 6 0 10 -7 10 -16z m138 -17 c2
-10 -3 -17 -12 -17 -10 0 -16 9 -16 21 0 24 23 21 28 -4z m2508 -18 c3 -6 1
-16 -4 -21 -13 -13 -75 9 -66 23 7 13 61 11 70 -2z m-1138 -8 c8 -4 12 -19 10
-32 -4 -30 -51 -35 -56 -6 -8 39 15 58 46 38z m-1068 -17 c0 -17 -22 -14 -28
4 -2 7 3 12 12 12 9 0 16 -7 16 -16z m1322 6 c38 0 49 -15 40 -52 -6 -24 -22
-23 -22 2 0 11 -6 20 -14 20 -7 0 -34 3 -60 6 -45 7 -46 6 -47 -22 0 -26 -1
-27 -9 -7 -5 11 -6 31 -3 43 5 19 11 21 42 16 20 -3 53 -6 73 -6z m285 -37
c-3 -10 -5 -2 -5 17 0 19 2 27 5 18 2 -10 2 -26 0 -35z m1013 -18 c0 -8 -4
-15 -10 -15 -5 0 -10 7 -10 15 0 8 5 15 10 15 6 0 10 -7 10 -15z m-65 -15 c0
-7 -6 -15 -12 -17 -8 -3 -13 4 -13 17 0 13 5 20 13 18 6 -3 12 -11 12 -18z
m-1035 -6 c0 -8 -4 -12 -10 -9 -5 3 -10 10 -10 16 0 5 5 9 10 9 6 0 10 -7 10
-16z m368 -12 c2 -13 -3 -29 -12 -35 -12 -10 -16 -38 -19 -142 l-3 -130 -2
132 c-1 75 -6 135 -12 138 -5 3 -10 20 -10 36 0 27 3 30 28 27 20 -2 28 -9 30
-26z m310 10 c2 -7 -3 -12 -12 -12 -9 0 -16 7 -16 16 0 17 22 14 28 -4z
m-2038 -24 c0 -23 -3 -29 -11 -21 -6 6 -8 20 -4 32 9 30 15 26 15 -11z m541 2
c23 -13 26 -58 3 -67 -14 -5 -15 -31 -12 -214 1 -114 0 -211 -4 -215 -5 -4 -8
4 -8 19 0 14 -5 29 -10 32 -7 4 -7 12 0 25 6 10 10 92 10 183 0 134 -3 167
-15 177 -26 22 -18 61 13 69 2 1 12 -4 23 -9z m1379 -11 c0 -11 -4 -17 -10
-14 -5 3 -10 13 -10 21 0 8 5 14 10 14 6 0 10 -9 10 -21z m-1033 -61 c-3 -8
-6 -5 -6 6 -1 11 2 17 5 13 3 -3 4 -12 1 -19z m1060 -50 c-3 -7 -5 -2 -5 12 0
14 2 19 5 13 2 -7 2 -19 0 -25z m-2687 12 c0 -5 -4 -10 -10 -10 -5 0 -10 5
-10 10 0 6 5 10 10 10 6 0 10 -4 10 -10z m2365 -15 c0 -11 -8 -21 -17 -23 -14
-3 -18 3 -18 23 0 20 4 26 18 23 9 -2 17 -12 17 -23z m709 9 c18 -18 21 -44 5
-44 -5 0 -7 5 -4 10 3 6 -3 10 -14 10 -14 0 -21 6 -21 20 0 24 13 26 34 4z
m-3244 -9 c0 -8 -4 -15 -9 -15 -13 0 -22 16 -14 24 11 11 23 6 23 -9z m2076
-11 c4 -17 2 -29 -7 -34 -18 -12 -29 -3 -29 24 0 42 26 50 36 10z m2059 1 c0
-11 -7 -21 -16 -23 -18 -3 -33 23 -23 39 10 17 39 5 39 -16z m-195 6 c0 -19
-20 -22 -47 -7 l-28 15 38 1 c20 0 37 -4 37 -9z m-1570 -51 c0 -11 -6 -20 -14
-20 -8 0 -24 -12 -34 -27 -11 -16 -57 -64 -101 -108 l-81 -80 0 -247 0 -246
65 -36 c36 -19 72 -33 80 -30 8 4 15 1 15 -5 0 -6 7 -11 15 -11 8 0 15 -6 15
-13 0 -12 43 -52 114 -107 18 -14 19 -13 13 3 -3 9 -2 17 3 17 10 0 14 -15 11
-34 -1 -5 8 -19 20 -32 16 -17 29 -22 46 -18 20 5 24 3 23 -12 -4 -33 -1 -37
17 -23 15 13 16 11 11 -13 -3 -15 -1 -25 3 -22 5 3 9 0 9 -6 0 -23 83 -121 98
-115 10 3 12 0 8 -10 -3 -9 20 -57 54 -114 l60 -98 102 -8 c71 -5 103 -4 106
4 2 6 15 11 28 11 23 0 25 -3 22 -37 -4 -46 -32 -57 -49 -21 -9 20 -19 25 -57
26 -26 1 -68 5 -94 8 -27 3 -48 3 -48 -1 0 -4 15 -41 34 -84 43 -98 90 -243
111 -345 13 -63 32 -278 35 -401 1 -18 1 -19 11 -2 5 9 8 21 5 25 -3 5 4 16
15 26 20 16 22 16 44 -8 13 -14 19 -26 13 -26 -6 0 -8 -9 -5 -20 3 -11 1 -20
-4 -20 -5 0 -9 -27 -9 -59 l0 -59 41 -4 c29 -3 43 0 47 10 4 12 6 12 14 -1 7
-13 38 -16 195 -17 102 0 189 -3 193 -5 4 -2 20 10 37 28 36 39 96 117 90 117
-2 0 13 18 34 40 38 40 40 41 89 34 34 -5 50 -3 50 5 0 14 47 15 55 1 3 -5 39
-10 80 -10 41 0 76 -4 79 -8 3 -5 -70 -8 -162 -8 -164 1 -166 1 -178 -22 -6
-12 -18 -28 -26 -35 -26 -21 -110 -138 -104 -144 3 -3 22 -7 43 -8 21 -2 39
-9 42 -16 2 -8 17 -29 32 -47 36 -41 37 -62 4 -62 -22 0 -25 4 -25 38 -1 28
-7 41 -27 56 -23 17 -26 17 -20 3 4 -11 1 -17 -9 -17 -8 0 -13 4 -9 9 3 5 1
12 -5 16 -5 3 -10 -1 -10 -9 0 -11 -10 -16 -33 -16 -18 0 -39 -6 -45 -12 -10
-10 -15 -10 -20 -1 -4 6 -32 13 -62 15 -46 2 -55 6 -52 21 3 15 -8 17 -118 17
l-120 0 0 -24 c0 -53 -5 -56 -110 -56 -86 0 -99 -2 -104 -18 -3 -10 -12 -42
-20 -72 -8 -30 -18 -63 -22 -73 -6 -17 -1 -18 75 -15 108 4 101 -15 -8 -22
l-83 -5 -22 -55 c-32 -79 -90 -191 -131 -255 -19 -31 -35 -59 -35 -63 0 -4 27
-5 59 -4 57 4 61 2 90 -30 17 -18 30 -37 30 -43 0 -5 -13 5 -29 23 -28 31 -33
32 -102 32 l-73 -1 -33 -49 c-65 -95 -253 -266 -389 -353 -153 -98 -441 -218
-451 -188 -2 6 -8 11 -13 11 -4 0 -6 -7 -3 -15 4 -10 0 -15 -15 -15 -28 0 -27
6 10 40 l32 28 -39 -2 c-21 -2 -28 -1 -14 1 14 3 30 9 37 15 7 5 17 7 23 3 5
-3 10 -2 10 3 0 4 24 16 53 25 76 24 229 104 346 181 122 79 288 242 379 370
119 169 223 414 262 621 18 94 24 358 11 460 -91 683 -609 1219 -1278 1320
-403 61 -856 -63 -1163 -318 -19 -16 -73 -66 -119 -110 -46 -45 -74 -68 -62
-50 12 18 33 41 48 53 l26 20 -27 0 c-15 0 -25 -4 -22 -9 3 -5 0 -14 -8 -20
-10 -9 -15 -8 -20 4 -3 9 -2 14 3 10 5 -3 12 8 16 24 5 22 11 28 22 24 12 -5
15 -2 10 10 -16 43 200 211 401 310 134 66 218 96 342 122 132 28 151 30 345
29 169 0 205 -3 320 -27 73 -16 179 -47 242 -72 61 -25 114 -45 117 -45 3 0 6
21 6 47 0 34 -6 54 -22 72 l-23 26 28 -24 c23 -21 27 -32 27 -77 0 -29 5 -56
10 -59 15 -9 13 218 -2 233 -8 8 -8 15 1 26 9 10 12 47 10 115 -3 114 -14 92
118 233 44 47 63 75 64 95 l1 28 7 -25 7 -25 18 28 c22 32 26 33 26 7z m-600
-6 c0 -17 -22 -14 -28 4 -2 7 3 12 12 12 9 0 16 -7 16 -16z m287 -26 c-3 -8
-6 -5 -6 6 -1 11 2 17 5 13 3 -3 4 -12 1 -19z m1033 -4 c0 -8 -5 -12 -10 -9
-6 4 -8 11 -5 16 9 14 15 11 15 -7z m1743 -16 c14 -21 2 -48 -22 -48 -24 0
-37 36 -20 56 14 17 28 14 42 -8z m-2813 -14 c0 -14 -4 -23 -10 -19 -5 3 -10
15 -10 26 0 10 5 19 10 19 6 0 10 -12 10 -26z m1345 -49 c0 -47 -3 -60 -15
-60 -11 0 -16 15 -18 63 -3 57 -1 63 15 60 15 -3 18 -13 18 -63z m-1165 43 c0
-12 -63 -9 -80 2 -11 8 -2 10 32 8 27 -2 48 -6 48 -10z m518 -21 c8 -6 17 -5
26 3 25 20 61 8 64 -21 4 -34 -22 -45 -55 -24 -18 12 -31 14 -57 6 -23 -6 -38
-5 -45 2 -12 12 -15 40 -5 50 8 8 54 -2 72 -16z m-666 -85 c-11 -15 -32 -38
-46 -51 -14 -13 -23 -28 -19 -34 3 -6 1 -7 -5 -3 -14 8 26 76 45 76 7 0 15 16
19 36 5 29 9 33 16 20 6 -11 3 -24 -10 -44z m1058 39 c0 -28 -17 -35 -29 -13
-11 21 -6 32 16 32 7 0 13 -9 13 -19z m-3122 -25 c4 -17 -12 -35 -30 -36 -12
0 -29 40 -23 51 11 16 49 6 53 -15z m1086 18 c23 -9 20 -33 -6 -43 -18 -7 -25
-4 -35 13 -18 32 0 46 41 30z m2424 -42 c2 -14 -2 -22 -12 -22 -19 0 -29 17
-22 36 8 22 30 12 34 -14z m-1875 12 c26 -4 45 -10 42 -14 -5 -7 -104 5 -113
15 -7 7 15 6 71 -1z m1065 -12 c2 -7 -3 -12 -12 -12 -9 0 -16 7 -16 16 0 17
22 14 28 -4z m-1988 -17 c0 -8 -4 -15 -9 -15 -13 0 -22 16 -14 24 11 11 23 6
23 -9z m3530 -20 c7 -8 10 -25 6 -40 -5 -20 -13 -25 -37 -25 -33 0 -44 17 -35
55 7 29 46 35 66 10z m-2559 -7 c0 -7 2 -23 5 -36 2 -14 -2 -25 -12 -29 -9 -3
-20 -15 -24 -27 l-9 -21 0 21 c-1 12 -8 24 -16 28 -9 3 -15 19 -15 41 0 33 2
35 35 35 21 0 35 -5 36 -12z m1919 2 c0 -5 -4 -10 -10 -10 -5 0 -10 5 -10 10
0 6 5 10 10 10 6 0 10 -4 10 -10z m764 -5 c7 -20 -4 -47 -18 -42 -17 6 -20 57
-3 57 8 0 17 -7 21 -15z m-5586 -31 c4 -31 -29 -68 -55 -60 -23 7 -35 46 -21
71 14 24 72 16 76 -11z m2762 11 c0 -8 -4 -15 -9 -15 -13 0 -22 16 -14 24 11
11 23 6 23 -9z m930 -20 c0 -8 -9 -15 -20 -15 -22 0 -27 15 -7 23 21 9 27 7
27 -8z m770 -1 c0 -8 -5 -12 -10 -9 -6 4 -8 11 -5 16 9 14 15 11 15 -7z m-512
-15 c-2 -6 -8 -10 -13 -10 -5 0 -11 4 -13 10 -2 6 4 11 13 11 9 0 15 -5 13
-11z m1190 -22 c2 -19 -1 -27 -13 -27 -19 0 -30 24 -21 46 9 23 31 11 34 -19z
m-2988 -47 c0 -11 -7 -20 -15 -20 -8 0 -15 9 -15 20 0 11 7 20 15 20 8 0 15
-9 15 -20z m256 12 c19 -13 26 -59 9 -66 -11 -4 -16 -23 -17 -68 l-2 -63 -3
62 c-3 38 -9 66 -18 73 -18 15 -20 56 -2 63 17 8 21 8 33 -1z m1783 -49 l-2
-58 -7 50 c-7 47 -5 65 6 65 2 0 3 -26 3 -57z m-1522 -15 c-2 -13 -4 -5 -4 17
-1 22 1 32 4 23 2 -10 2 -28 0 -40z m263 -8 c0 -29 -4 -40 -15 -40 -11 0 -15
11 -15 40 0 29 4 40 15 40 11 0 15 -11 15 -40z m1850 -4 c0 -2 3 -12 6 -21 5
-13 2 -16 -17 -13 -31 4 -39 38 -10 38 12 0 21 -2 21 -4z m145 -7 c4 -5 4 -21
1 -35 -6 -21 -9 -23 -26 -14 -22 12 -27 46 -7 53 19 8 25 8 32 -4z m-1887 -24
c0 -14 -4 -25 -8 -25 -11 0 -21 30 -14 41 10 17 22 9 22 -16z m25 10 c4 -8 2
-17 -3 -20 -6 -4 -10 3 -10 14 0 25 6 27 13 6z m165 -18 c2 -11 -3 -15 -17
-14 -21 1 -28 17 -14 31 10 10 28 1 31 -17z m2752 8 c0 -8 -7 -15 -15 -15 -8
0 -15 7 -15 15 0 8 7 15 15 15 8 0 15 -7 15 -15z m-3301 -64 c-16 -5 -33 15
-24 30 6 9 12 7 22 -7 9 -13 10 -20 2 -23z m1664 27 c7 -23 -5 -48 -24 -48
-14 0 -19 7 -19 30 0 23 5 30 19 30 11 0 21 -6 24 -12z m-673 -24 c0 -8 -5
-12 -10 -9 -6 4 -8 11 -5 16 9 14 15 11 15 -7z m1503 -13 c4 -1 7 -19 7 -42 0
-38 -2 -40 -27 -37 -34 4 -41 23 -11 33 l23 8 -22 4 c-13 2 -23 10 -23 17 0
18 9 25 28 21 9 -2 20 -4 25 -4z m-3178 -31 c-5 -8 -11 -8 -17 -2 -6 6 -7 16
-3 22 5 8 11 8 17 2 6 -6 7 -16 3 -22z m2631 3 c-10 -10 -19 5 -10 18 6 11 8
11 12 0 2 -7 1 -15 -2 -18z m-438 -127 c-16 -20 -19 5 -11 76 l8 73 5 -70 c3
-38 2 -74 -2 -79z m550 117 c-10 -2 -26 -2 -35 0 -10 3 -2 5 17 5 19 0 27 -2
18 -5z m-1598 -18 c0 -8 -9 -15 -20 -15 -11 0 -20 7 -20 15 0 8 9 15 20 15 11
0 20 -7 20 -15z m960 -71 c0 -47 -3 -83 -7 -81 -8 5 -5 167 3 167 2 0 4 -39 4
-86z m1557 80 c-3 -3 -12 -4 -19 -1 -8 3 -5 6 6 6 11 1 17 -2 13 -5z m-1352
-14 c3 -5 -3 -10 -14 -10 -12 0 -21 5 -21 10 0 6 6 10 14 10 8 0 18 -4 21 -10z
m93 -12 c-7 -19 -38 -22 -38 -4 0 10 9 16 21 16 12 0 19 -5 17 -12z m144 -61
c-3 -44 0 -67 7 -67 6 0 11 -7 11 -16 0 -13 -8 -15 -35 -12 -26 3 -35 0 -35
-11 0 -8 -3 -12 -6 -8 -10 10 7 47 22 47 10 0 14 13 14 45 0 25 -4 45 -10 45
-14 0 -12 37 3 43 26 11 32 -1 29 -66z m-854 28 c2 -16 9 -36 15 -43 8 -11 1
-13 -39 -10 -48 3 -49 3 -50 38 -3 46 2 52 39 48 27 -3 33 -8 35 -33z m248 8
c-10 -10 -19 5 -10 18 6 11 8 11 12 0 2 -7 1 -15 -2 -18z m1484 -6 c0 -22 -17
-39 -36 -35 -22 4 -32 47 -13 59 16 9 49 -7 49 -24z m-792 1 c-2 -5 -7 -9 -11
-9 -4 1 -14 1 -22 1 -8 0 -15 6 -15 14 0 9 8 12 25 8 14 -2 24 -9 23 -14z m92
-14 c0 -8 -9 -14 -19 -14 -22 0 -35 15 -27 29 9 13 46 1 46 -15z m1492 -8 c50
-11 66 -32 23 -31 -139 4 -222 25 -197 50 8 8 98 -2 174 -19z m-2272 4 c0 -5
-4 -10 -10 -10 -5 0 -10 5 -10 10 0 6 5 10 10 10 6 0 10 -4 10 -10z m-2655
-10 c3 -5 -1 -10 -10 -10 -9 0 -13 5 -10 10 3 6 8 10 10 10 2 0 7 -4 10 -10z
m-1935 -41 c0 -5 -9 -9 -20 -9 -19 0 -27 20 -13 33 7 8 33 -11 33 -24z m4604
-11 c6 -5 1 -8 -11 -8 -13 0 -23 6 -23 13 0 20 14 31 19 15 2 -7 9 -16 15 -20z
m-94 13 c0 -5 -7 -12 -16 -15 -14 -5 -15 -4 -4 9 14 17 20 19 20 6z m480 -41
c0 -20 -5 -30 -15 -30 -10 0 -15 10 -15 30 0 20 5 30 15 30 10 0 15 -10 15
-30z m-3126 -6 c9 -23 8 -24 -14 -24 -19 0 -27 20 -13 33 11 11 20 8 27 -9z
m1183 -181 c-2 -37 -3 -9 -3 62 0 72 1 102 3 68 2 -34 2 -93 0 -130z m1503
121 c0 -73 -24 -70 -28 4 -2 42 0 52 12 52 13 0 16 -12 16 -56z m2101 46 c22
-13 25 -52 4 -70 -15 -12 -55 -5 -55 10 0 5 -3 15 -6 23 -3 8 2 22 11 31 19
19 21 19 46 6z m-1966 -40 c3 -11 3 -29 0 -40 -3 -11 -2 -20 3 -20 8 0 25 -40
19 -46 -1 -1 -15 -6 -31 -10 -25 -6 -28 -5 -22 14 4 11 3 23 -1 25 -14 9 -2
97 12 97 8 0 17 -9 20 -20z m-1262 -32 c-2 -4 -5 -66 -6 -137 l-3 -129 49 -43
c27 -23 65 -64 84 -90 19 -27 41 -49 48 -49 7 0 15 -18 19 -40 11 -67 36 -45
36 31 0 21 -4 39 -10 39 -5 0 -10 5 -10 10 0 6 7 10 15 10 16 0 29 -56 34
-147 1 -19 7 -22 54 -25 l52 -3 3 -52 3 -53 -45 0 c-43 0 -46 2 -46 28 0 47
-11 72 -31 72 -11 0 -19 -2 -19 -5 0 -7 103 -219 110 -225 3 -3 16 -29 29 -57
24 -51 49 -73 38 -34 -4 17 2 20 45 23 28 1 52 0 55 -4 2 -5 20 -8 39 -8 l34
0 0 -108 0 -107 -45 3 c-25 2 -45 1 -45 -3 0 -4 21 -49 47 -99 25 -50 53 -103
60 -118 14 -28 33 -38 33 -18 0 25 17 6 26 -27 7 -28 14 -37 27 -35 9 2 17 -1
16 -5 -5 -29 3 -43 24 -43 28 0 55 38 32 46 -10 4 -12 11 -5 23 6 12 5 22 -2
29 -9 9 -9 15 -1 23 8 8 20 7 44 -5 38 -19 99 -21 99 -3 0 8 4 7 10 -3 5 -8 7
-23 4 -32 -3 -10 2 -19 15 -23 11 -3 23 -15 26 -26 5 -14 12 -18 26 -14 15 5
17 3 12 -11 -5 -14 -2 -16 15 -12 15 4 22 2 22 -8 0 -8 10 -14 22 -14 20 0 20
1 5 18 -19 21 -23 67 -6 77 14 10 49 -24 49 -47 0 -11 9 -22 20 -25 11 -3 20
-13 20 -23 0 -18 46 -93 61 -98 5 -2 9 -10 9 -17 0 -7 6 -15 13 -18 24 -9 -2
-18 -39 -14 -33 3 -36 5 -17 11 22 8 22 9 4 35 -10 14 -26 38 -35 54 -11 18
-25 27 -41 27 -25 0 -33 -14 -15 -25 18 -11 11 -53 -10 -60 -16 -5 -20 -15
-20 -56 0 -27 -4 -49 -10 -49 -5 0 -10 24 -11 53 0 33 -3 45 -8 33 -4 -10 -6
-59 -4 -107 2 -83 1 -89 -18 -89 -11 0 -23 9 -28 23 -10 27 -4 47 15 47 15 0
19 12 7 23 -3 4 -12 2 -20 -4 -7 -7 -45 -11 -88 -10 -86 2 -85 8 -24 -107 25
-47 37 -61 50 -57 24 8 33 -12 12 -24 -17 -9 -17 -11 -1 -38 16 -26 21 -28 72
-25 34 1 56 -2 56 -8 0 -5 -22 -10 -50 -10 -27 0 -50 -3 -50 -6 0 -4 20 -43
44 -88 l44 -81 -45 -68 -45 -67 -142 0 -141 0 -92 190 -91 190 -371 0 -371 0
52 73 c67 94 148 195 184 229 44 41 75 48 205 48 78 0 118 4 114 10 -9 15
-468 13 -483 -2 -14 -14 -17 -11 -26 25 -7 28 -7 28 22 13 24 -12 66 -14 250
-9 122 3 222 9 222 12 0 3 -7 14 -14 24 -11 14 -30 17 -125 17 l-111 0 -68 65
-67 65 -137 0 c-125 0 -140 -2 -158 -20 -25 -25 -39 -26 -17 -2 10 10 14 22
10 26 -5 4 0 13 9 20 28 20 51 83 38 104 -9 14 -10 13 -4 -7 4 -15 2 -21 -4
-17 -6 3 -8 -1 -6 -11 2 -10 1 -23 -3 -29 -11 -16 -53 -28 -53 -15 0 6 10 11
23 11 12 0 18 4 12 8 -5 4 -11 14 -13 22 -2 8 -8 17 -13 18 -5 2 -9 12 -9 23
0 10 -6 19 -14 19 -7 0 -16 8 -20 18 -7 22 -25 49 -53 81 -13 14 -23 33 -23
41 0 25 -30 60 -51 60 -10 0 -19 3 -19 6 0 16 232 484 240 484 6 0 203 -377
208 -398 2 -7 -17 -53 -42 -101 -25 -49 -46 -92 -46 -95 0 -3 9 -6 20 -6 11 0
20 -4 20 -9 0 -4 -11 -6 -24 -4 -24 5 -19 12 -121 -170 l-26 -48 145 2 146 1
57 -60 58 -61 108 -3 c103 -3 108 -2 105 17 -3 18 -13 21 -90 25 l-87 5 -71
68 c-39 37 -77 67 -85 67 -8 0 -15 9 -15 20 0 37 24 21 93 -60 l68 -80 85 0
84 0 -17 26 c-15 24 -21 26 -76 22 -61 -3 -75 4 -57 32 8 12 13 13 30 3 18
-12 80 -19 80 -9 0 16 -414 817 -450 871 -79 116 -210 230 -291 254 l-34 9 30
2 c17 1 100 1 185 1 163 -1 235 -11 307 -42 25 -10 48 -19 53 -19 11 0 10 169
-1 176 -4 2 -4 16 1 29 5 14 7 40 3 57 l-6 33 20 -20 c11 -11 19 -23 16 -27z
m2527 32 c0 -5 -2 -10 -4 -10 -3 0 -8 5 -11 10 -3 6 -1 10 4 10 6 0 11 -4 11
-10z m-4680 -8 c0 -13 -12 -22 -22 -16 -10 6 -1 24 13 24 5 0 9 -4 9 -8z
m2362 -347 c3 -11 11 -20 18 -20 7 0 15 -6 18 -13 3 -9 -5 -12 -24 -10 -24 2
-28 -1 -26 -16 2 -11 -1 -15 -7 -11 -6 3 -11 26 -11 49 0 49 -10 56 -87 56
-23 0 -45 5 -48 10 -4 7 17 8 63 4 l69 -7 6 84 c4 46 8 111 9 144 1 33 5 -10
9 -95 3 -85 9 -164 11 -175z m958 289 c0 -8 -5 -12 -10 -9 -6 4 -8 11 -5 16 9
14 15 11 15 -7z m520 1 c14 -17 6 -65 -11 -65 -7 0 -8 11 -4 30 4 19 3 30 -4
30 -6 0 -11 5 -11 10 0 15 16 12 30 -5z m-2226 -65 c1 -26 6 -32 29 -37 43 -9
32 -23 -18 -23 -44 0 -45 1 -45 33 0 17 3 42 6 55 9 31 26 13 28 -28z m2616
-11 c0 -43 -14 -53 -24 -16 -7 28 3 69 15 61 5 -3 9 -23 9 -45z m420 36 c10
-12 9 -16 -5 -21 -19 -8 -40 9 -31 25 10 15 21 14 36 -4z m-1330 -5 c0 -5 -2
-10 -4 -10 -3 0 -8 5 -11 10 -3 6 -1 10 4 10 6 0 11 -4 11 -10z m1749 -14 c9
-11 10 -20 1 -36 -13 -24 -38 -23 -54 3 -9 15 -7 21 8 33 25 18 31 18 45 0z
m411 -1 c0 -8 -9 -15 -20 -15 -11 0 -20 7 -20 15 0 8 9 15 20 15 11 0 20 -7
20 -15z m-1760 -36 c0 -10 -7 -19 -15 -19 -15 0 -21 31 -9 43 11 10 24 -3 24
-24z m-1042 -1 c-2 -15 3 -24 15 -26 12 -2 17 3 18 20 1 18 2 19 6 4 7 -26 -5
-34 -57 -39 -25 -3 -39 -3 -32 0 6 2 12 15 12 27 0 26 8 36 27 36 9 0 13 -8
11 -22z m642 12 c0 -5 -5 -10 -11 -10 -5 0 -7 5 -4 10 3 6 8 10 11 10 2 0 4
-4 4 -10z m1096 -17 c3 -10 10 -26 15 -35 6 -12 6 -18 -1 -18 -5 0 -10 4 -10
9 0 5 -9 11 -20 14 -12 3 -20 14 -20 26 0 26 28 28 36 4z m-1096 -33 c0 -5 -4
-10 -10 -10 -5 0 -10 5 -10 10 0 6 5 10 10 10 6 0 10 -4 10 -10z m1220 -10 c0
-27 -27 -37 -47 -17 -20 19 -9 37 23 37 17 0 24 -5 24 -20z m1216 -1 c10 -17
-13 -36 -27 -22 -12 12 -4 33 11 33 5 0 12 -5 16 -11z m-3356 -39 c0 -5 -5
-10 -11 -10 -5 0 -7 5 -4 10 3 6 8 10 11 10 2 0 4 -4 4 -10z m99 -17 c0 -25
-1 -25 -8 -8 -5 11 -7 23 -4 28 8 14 13 7 12 -20z m821 17 c0 -5 -4 -10 -10
-10 -5 0 -10 5 -10 10 0 6 5 10 10 10 6 0 10 -4 10 -10z m-2170 -16 c0 -8 -5
-12 -10 -9 -6 4 -8 11 -5 16 9 14 15 11 15 -7z m2939 -12 c-5 -2 -9 -12 -9
-23 0 -10 -4 -19 -10 -19 -5 0 -10 9 -10 20 0 11 -5 20 -12 20 -6 0 -3 6 7 14
14 10 22 11 31 2 7 -6 8 -12 3 -14z m-79 -7 c0 -16 -6 -25 -15 -25 -18 0 -19
16 -2 35 16 19 17 19 17 -10z m1615 -25 c0 -26 -5 -36 -19 -38 -18 -4 -46 21
-46 39 0 15 33 40 49 37 11 -2 16 -14 16 -38z m-1385 21 c0 -5 -7 -11 -15 -15
-9 -3 -15 0 -15 9 0 8 7 15 15 15 8 0 15 -4 15 -9z m-1396 -22 c-3 -5 -10 -7
-15 -3 -5 3 -7 10 -3 15 3 5 10 7 15 3 5 -3 7 -10 3 -15z m476 11 c0 -5 -4
-10 -10 -10 -5 0 -10 5 -10 10 0 6 5 10 10 10 6 0 10 -4 10 -10z m280 -31 c0
-19 -4 -29 -12 -27 -12 4 -20 37 -12 50 11 18 24 6 24 -23z m775 21 c10 -16
-16 -43 -28 -31 -11 11 -2 41 12 41 5 0 13 -5 16 -10z m-1865 -51 c0 -36 -4
-49 -12 -46 -14 5 -14 7 -4 50 6 26 5 27 -19 21 -19 -5 -25 -2 -25 10 0 11 9
16 30 16 29 0 30 -1 30 -51z m-1442 34 c-10 -2 -26 -2 -35 0 -10 3 -2 5 17 5
19 0 27 -2 18 -5z m1492 -15 c0 -19 -2 -20 -10 -8 -13 19 -13 30 0 30 6 0 10
-10 10 -22z m1336 -10 c7 -25 -18 -53 -40 -45 -19 8 -22 63 -3 70 19 7 36 -3
43 -25z m674 -3 c0 -39 -14 -46 -30 -16 -12 23 -3 51 16 51 9 0 14 -12 14 -35z
m-5799 10 c-1 -15 -24 -12 -29 3 -3 9 2 13 12 10 10 -1 17 -7 17 -13z m4546
-7 c-3 -8 -6 -5 -6 6 -1 11 2 17 5 13 3 -3 4 -12 1 -19z m205 6 c12 -8 9 -92
-2 -99 -6 -4 -33 -4 -61 0 -47 7 -49 8 -35 24 9 10 16 35 16 55 l0 38 37 -7
c21 -4 41 -9 45 -11z m573 3 c21 -16 12 -37 -16 -37 -14 0 -19 7 -19 25 0 28
8 31 35 12z m583 -3 c20 -6 22 -12 21 -73 -2 -56 -3 -60 -8 -26 -6 39 -7 40
-48 43 -53 4 -57 22 -5 22 l37 1 -24 19 c-24 20 -15 25 27 14z m442 -9 c0 -8
-9 -15 -20 -15 -20 0 -26 11 -13 23 12 13 33 7 33 -8z m-2673 -51 c-6 -7 -37
7 -37 16 0 15 35 16 38 2 2 -7 2 -16 -1 -18z m116 -13 c7 -28 -3 -34 -25 -14
-23 21 -23 33 1 33 10 0 21 -9 24 -19z m-1187 -18 c-10 -10 -19 5 -10 18 6 11
8 11 12 0 2 -7 1 -15 -2 -18z m81 -13 c6 -31 18 -39 26 -17 3 6 6 -18 6 -55 1
-37 -2 -69 -6 -71 -17 -9 -83 6 -83 19 0 13 23 19 63 15 24 -3 22 36 -3 49
-11 6 -19 7 -18 1 2 -5 -1 -8 -7 -7 -9 1 -11 45 -4 84 4 23 19 12 26 -18z
m2191 8 c5 17 32 15 32 -3 0 -11 12 -15 50 -15 28 0 50 -4 50 -10 0 -5 -21 -7
-50 -3 -44 5 -50 4 -44 -11 4 -10 1 -16 -9 -16 -8 0 -17 7 -20 14 -4 11 -16
13 -40 9 -27 -4 -36 -1 -41 13 -9 24 12 35 42 21 20 -9 26 -9 30 1z m-2448
-13 c0 -8 -2 -15 -4 -15 -2 0 -6 7 -10 15 -3 8 -1 15 4 15 6 0 10 -7 10 -15z
m3388 -9 c5 -24 -10 -38 -31 -30 -17 6 -23 35 -10 48 12 12 38 1 41 -18z
m-1844 -3 c-4 -10 -10 -58 -14 -108 -4 -76 -6 -84 -13 -53 -4 20 -13 39 -20
41 -7 3 -4 6 6 6 19 1 23 34 7 75 -12 33 -3 56 22 56 16 0 18 -4 12 -17z
m2581 -23 c0 -8 -8 -16 -17 -18 -13 -2 -18 3 -18 18 0 15 5 20 18 18 9 -2 17
-10 17 -18z m-3728 -22 c-3 -7 -5 -2 -5 12 0 14 2 19 5 13 2 -7 2 -19 0 -25z
m1179 12 c0 -20 -7 -25 -19 -14 -7 7 2 34 12 34 4 0 7 -9 7 -20z m2264 5 c0
-8 -4 -15 -10 -15 -5 0 -10 7 -10 15 0 8 5 15 10 15 6 0 10 -7 10 -15z m-1067
-20 c-7 -21 -13 -19 -13 6 0 11 4 18 10 14 5 -3 7 -12 3 -20z m1950 13 c7 -22
-4 -38 -28 -38 -27 0 -39 14 -31 35 7 18 53 20 59 3z m-3423 -28 c0 -5 -15
-10 -34 -10 -19 0 -38 5 -41 10 -4 6 10 10 34 10 23 0 41 -4 41 -10z m1938 -8
c2 -7 -6 -12 -17 -12 -21 0 -27 11 -14 24 9 9 26 2 31 -12z m-3158 4 c0 -11
-19 -15 -25 -6 -3 5 1 10 9 10 9 0 16 -2 16 -4z m2157 -18 c-3 -8 -6 -5 -6 6
-1 11 2 17 5 13 3 -3 4 -12 1 -19z m490 0 c-3 -8 -6 -5 -6 6 -1 11 2 17 5 13
3 -3 4 -12 1 -19z m233 3 c0 -11 -4 -23 -10 -26 -5 -3 -10 -2 -10 4 0 5 -3 16
-6 25 -4 11 -1 16 10 16 9 0 16 -8 16 -19z m-200 -11 c0 -5 -5 -10 -11 -10 -5
0 -7 5 -4 10 3 6 8 10 11 10 2 0 4 -4 4 -10z m-1140 -21 c0 -11 -27 -12 -34 0
-3 4 -3 11 0 14 8 8 34 -3 34 -14z m868 14 c-10 -2 -26 -2 -35 0 -10 3 -2 5
17 5 19 0 27 -2 18 -5z m382 -19 c0 -16 -16 -19 -25 -4 -8 13 4 32 16 25 5 -4
9 -13 9 -21z m1480 -21 c0 -14 -26 -18 -34 -5 -3 5 -2 18 1 30 5 21 6 21 19 5
7 -10 14 -24 14 -30z m-4842 7 c-7 -10 -14 -17 -17 -15 -4 4 18 35 25 35 2 0
-1 -9 -8 -20z m2404 -15 c-2 -15 0 -25 7 -25 6 0 11 7 11 15 0 8 5 15 10 15
15 0 12 -26 -5 -40 -8 -6 -19 -9 -25 -5 -11 7 -14 48 -3 58 10 11 11 9 5 -18z
m1112 10 c3 -8 1 -15 -4 -15 -6 0 -10 7 -10 15 0 8 2 15 4 15 2 0 6 -7 10 -15z
m694 -16 c4 -19 -19 -31 -38 -19 -18 11 -4 42 17 38 10 -2 19 -10 21 -19z
m-718 1 c0 -5 -5 -10 -11 -10 -5 0 -7 5 -4 10 3 6 8 10 11 10 2 0 4 -4 4 -10z
m1580 -4 c0 -11 -19 -15 -25 -6 -3 5 1 10 9 10 9 0 16 -2 16 -4z m190 -21 c0
-18 -5 -25 -20 -25 -15 0 -20 7 -20 25 0 18 5 25 20 25 15 0 20 -7 20 -25z
m-3340 -16 c0 -5 -7 -9 -15 -9 -12 0 -15 -13 -15 -57 0 -31 -2 -54 -4 -52 -7
7 -18 108 -12 117 7 11 46 13 46 1z m1821 -41 c4 -62 4 -63 -21 -65 -14 -1
-38 1 -54 4 -24 4 -27 7 -13 15 9 5 17 16 17 24 0 10 7 14 18 12 9 -2 16 -10
15 -16 -2 -7 3 -12 11 -12 9 0 12 7 9 20 -3 11 -12 20 -19 20 -8 0 -14 4 -14
9 0 18 50 6 51 -11z m1237 6 c13 -4 22 -14 22 -25 0 -15 -7 -19 -39 -19 -42 0
-57 11 -47 35 6 16 27 19 64 9z m-2834 -10 c9 -3 16 -15 16 -25 0 -14 -7 -19
-30 -19 -22 0 -30 5 -30 18 0 30 13 38 44 26z m-1838 -38 l-6 -33 46 -7 c26
-3 58 -6 71 -6 26 0 60 -26 49 -38 -4 -3 -10 -2 -14 4 -10 16 -45 22 -157 30
-55 3 -127 10 -160 14 l-60 7 73 2 c70 1 72 2 72 27 0 32 22 27 30 -7 9 -36
34 -30 38 9 2 17 8 32 14 32 6 0 8 -13 4 -34z m3833 27 c-29 -3 -40 -11 -58
-43 l-21 -38 62 -10 63 -9 -77 -2 c-62 -1 -78 -4 -78 -16 0 -8 -4 -15 -10 -15
-5 0 -10 -24 -10 -54 0 -45 -3 -54 -20 -59 -26 -7 -29 0 -32 66 -1 35 -7 58
-15 61 -7 3 -13 15 -13 26 0 11 -4 20 -10 20 -5 0 -10 14 -10 31 0 31 1 31 38
25 20 -3 44 -6 54 -6 11 0 15 -6 11 -21 -5 -17 -2 -20 13 -17 12 2 18 11 16
22 -3 14 1 16 17 11 14 -4 23 0 31 15 8 15 20 20 48 18 l37 -1 -36 -4z m-4079
-24 c0 -5 -4 -9 -10 -9 -5 0 -10 7 -10 16 0 8 5 12 10 9 6 -3 10 -10 10 -16z
m2224 -5 c3 -9 6 -36 6 -60 0 -24 5 -44 10 -44 6 0 10 -4 10 -10 0 -5 -7 -10
-15 -10 -8 0 -17 14 -21 36 -4 19 -13 38 -20 41 -8 3 -14 15 -15 27 -1 19 -2
19 -9 -4 -5 -15 -8 -18 -9 -8 -2 30 11 48 34 48 13 0 26 -7 29 -16z m2109 9
c-7 -2 -21 -2 -30 0 -10 3 -4 5 12 5 17 0 24 -2 18 -5z m139 -5 c-9 -9 -15 -9
-24 0 -9 9 -7 12 12 12 19 0 21 -3 12 -12z m776 -2 c27 -16 -6 -34 -56 -29
-138 12 -152 14 -152 30 0 13 15 15 98 11 53 -2 103 -7 110 -12z m-1780 -28
c-2 -25 -8 -33 -23 -33 -11 0 -21 8 -23 18 -2 9 1 17 7 17 6 0 11 -5 11 -11 0
-5 5 -7 10 -4 17 10 11 25 -10 25 -11 0 -20 5 -20 10 0 6 12 10 26 10 23 0 25
-3 22 -32z m322 7 c17 -20 5 -45 -20 -45 -23 0 -35 22 -26 45 7 19 30 19 46 0z
m-3817 -2 c-13 -2 -35 -2 -50 0 -16 2 -5 4 22 4 28 0 40 -2 28 -4z m2027 -7
c0 -9 -7 -12 -20 -9 -11 3 -17 9 -14 14 8 14 34 10 34 -5z m1345 7 l70 -8 -60
-5 c-33 -3 -79 -3 -102 0 l-42 7 -7 -44 c-4 -27 -14 -49 -25 -56 -26 -16 -24
-27 5 -27 14 0 28 -4 31 -10 3 -5 -2 -10 -12 -9 -25 0 -101 16 -85 18 6 0 12
5 12 10 0 6 -24 12 -52 14 -53 3 -53 3 11 5 58 2 63 4 58 22 -3 11 -1 23 4 26
5 3 7 10 3 15 -3 6 4 13 16 16 13 3 19 11 16 19 -6 16 46 18 159 7z m-476 -12
c11 -7 11 -15 1 -45 -13 -40 -30 -48 -30 -13 0 12 -4 29 -10 37 -14 22 13 37
39 21z m-1021 -41 c-2 -40 -2 -40 -42 -40 -23 0 -48 4 -55 9 -10 6 0 8 28 4
47 -6 61 4 61 45 0 12 2 22 5 22 3 0 5 -18 3 -40z m-1298 16 c0 -9 -8 -12 -25
-8 -28 5 -24 22 6 22 10 0 19 -6 19 -14z m-390 -6 c0 -5 -4 -10 -9 -10 -5 0
-16 -3 -25 -6 -9 -3 -16 -1 -16 4 0 9 16 17 43 21 4 0 7 -3 7 -9z m1707 -22
c-3 -7 -5 -2 -5 12 0 14 2 19 5 13 2 -7 2 -19 0 -25z m173 22 c0 -5 -9 -10
-19 -10 -11 0 -23 5 -26 10 -4 6 5 10 19 10 14 0 26 -4 26 -10z m30 -10 c0
-11 -4 -20 -9 -20 -7 0 -8 17 -2 38 4 10 11 -2 11 -18z m400 -8 c0 -4 -26 -6
-59 -4 l-58 4 -7 -58 c-3 -31 -4 -59 -1 -62 3 -3 32 -8 65 -10 33 -2 60 -8 60
-12 0 -5 -25 -6 -56 -3 -48 5 -59 3 -71 -13 -13 -18 -14 -18 -19 4 -8 29 -42
29 -46 0 -2 -14 -13 -24 -30 -29 l-28 -7 1 66 c1 37 4 55 6 41 3 -20 11 -28
31 -31 56 -8 62 -1 62 61 0 32 2 60 4 62 7 7 146 -2 146 -9z m-464 -5 c8 3 12
-3 11 -16 -1 -23 -13 -28 -20 -8 -3 7 -6 5 -6 -5 -2 -32 -21 -19 -21 14 0 24
3 29 11 21 6 -6 17 -9 25 -6z m982 -59 c-9 -25 -38 -47 -38 -29 0 5 6 12 13
14 6 3 0 6 -14 6 -43 1 -51 51 -8 51 10 0 19 5 19 10 0 6 8 2 18 -7 14 -14 16
-24 10 -45z m-2818 26 c0 -8 -4 -14 -10 -14 -5 0 -10 9 -10 21 0 11 5 17 10
14 6 -3 10 -13 10 -21z m3388 9 c-4 -22 -22 -20 -26 1 -2 10 3 16 13 16 10 0
15 -7 13 -17z m757 -7 c18 -26 11 -52 -16 -67 -31 -16 -59 6 -59 45 0 18 3 36
7 39 15 15 53 6 68 -17z m315 14 c0 -5 -5 -10 -11 -10 -5 0 -7 5 -4 10 3 6 8
10 11 10 2 0 4 -4 4 -10z m-4495 -20 c3 -5 -3 -10 -14 -10 -12 0 -21 5 -21 10
0 6 6 10 14 10 8 0 18 -4 21 -10z m2385 -2 c0 -4 -7 -8 -15 -8 -8 0 -15 4 -15
8 0 5 7 9 15 9 8 0 15 -4 15 -9z m-2000 -14 c0 -10 -7 -14 -22 -12 -32 5 -35
28 -4 28 17 0 26 -5 26 -16z m1943 -25 c-6 -6 -9 -18 -6 -27 4 -10 2 -13 -5
-8 -18 11 -14 46 5 46 13 0 14 -3 6 -11z m64 -5 c2 -6 -7 -11 -20 -11 -14 0
-24 5 -24 14 0 16 39 14 44 -3z m1133 -3 c0 -4 33 -12 73 -17 96 -10 46 -18
-62 -9 -79 7 -83 8 -61 21 29 15 50 18 50 5z m483 -6 c17 -17 11 -54 -10 -62
-32 -12 -57 39 -31 65 16 16 23 15 41 -3z m1017 0 c0 -8 -4 -15 -9 -15 -5 0
-11 7 -15 15 -3 9 0 15 9 15 8 0 15 -7 15 -15z m-4860 -15 c0 -13 -6 -20 -17
-19 -10 0 -13 3 -6 5 7 3 9 12 6 20 -3 8 0 14 6 14 6 0 11 -9 11 -20z m3020
10 c0 -5 -7 -10 -15 -10 -8 0 -15 5 -15 10 0 6 7 10 15 10 8 0 15 -4 15 -10z
m-3071 -16 c2 -2 0 -28 -4 -59 l-7 -56 -51 3 -52 3 -3 49 c-5 72 -1 76 60 69
29 -3 55 -7 57 -9z m3236 -14 c0 -18 -6 -26 -23 -28 -24 -4 -38 18 -28 44 3 9
15 14 28 12 17 -2 23 -10 23 -28z m1213 -8 c2 -14 -2 -22 -12 -22 -19 0 -29
17 -22 36 8 22 30 12 34 -14z m-1118 -2 c0 -11 -8 -23 -17 -27 -10 -3 -27 -13
-38 -22 -13 -10 -16 -11 -7 -1 6 8 12 24 12 35 0 26 8 35 32 35 11 0 18 -7 18
-20z m-610 -14 c0 -34 -18 -42 -29 -14 -10 27 -6 38 15 38 8 0 14 -10 14 -24z
m240 14 c0 -5 -4 -10 -10 -10 -5 0 -10 5 -10 10 0 6 5 10 10 10 6 0 10 -4 10
-10z m-3383 -16 c-3 -3 -12 -4 -19 -1 -8 3 -5 6 6 6 11 1 17 -2 13 -5z m4763
-13 c13 -25 3 -51 -20 -51 -10 0 -21 7 -24 16 -7 17 10 54 24 54 5 0 14 -9 20
-19z m-2079 -20 c0 -3 2 -17 5 -31 5 -36 -7 -49 -39 -43 -23 4 -27 10 -27 37
0 18 5 37 11 43 11 11 48 6 50 -6z m-2138 2 c-7 -2 -21 -2 -30 0 -10 3 -4 5
12 5 17 0 24 -2 18 -5z m1907 -48 c5 -7 12 -33 14 -58 4 -43 3 -46 -25 -56
-16 -5 -29 -15 -29 -20 0 -6 -14 -11 -31 -11 -26 0 -30 -3 -27 -22 2 -18 13
-26 48 -35 l45 -11 -51 -1 -51 -1 -6 57 c-4 36 -12 60 -21 65 -20 11 -21 28
-1 28 28 0 15 20 -12 21 -51 0 -147 10 -152 14 -2 3 37 5 87 5 73 0 92 3 92
14 0 24 101 33 120 11z m1588 4 c9 0 4 -5 -12 -9 -16 -5 -33 -7 -38 -4 -14 9
3 26 19 20 8 -3 22 -6 31 -7z m-1008 -9 c0 -5 -7 -10 -15 -10 -8 0 -15 5 -15
10 0 6 7 10 15 10 8 0 15 -4 15 -10z m1328 -10 c29 0 51 -3 49 -7 -3 -5 -46
-7 -96 -5 -60 2 -89 7 -85 14 4 6 22 8 43 4 20 -3 60 -6 89 -6z m-1168 -4 c0
-3 -4 -8 -10 -11 -5 -3 -10 -1 -10 4 0 6 5 11 10 11 6 0 10 -2 10 -4z m179 -9
c32 1 103 -2 157 -7 l99 -8 -93 1 c-71 2 -95 -1 -102 -12 -7 -12 -11 -12 -23
-2 -12 9 -16 9 -20 -1 -5 -10 -8 -9 -16 3 -7 11 -19 15 -36 11 -36 -6 -31 -17
13 -28 34 -8 37 -12 40 -47 l3 -38 47 5 c26 2 48 5 50 5 2 1 0 6 -3 11 -3 6 1
10 9 10 8 0 17 -10 19 -22 l4 -23 8 23 c7 21 25 31 25 14 0 -4 15 -9 32 -10
18 -2 36 -9 41 -17 6 -11 27 -15 75 -16 37 -1 94 -5 127 -9 67 -9 -216 -3
-322 6 -62 6 -63 6 -63 -18 0 -13 -6 -32 -14 -43 -12 -16 -30 -18 -180 -19
-133 -1 -166 2 -166 12 0 11 23 13 112 10 113 -3 135 4 110 35 -5 7 -8 50 -7
97 3 90 4 101 11 85 2 -5 30 -9 63 -8z m-794 -17 c3 -5 1 -10 -5 -10 -6 0 -10
-6 -9 -12 5 -41 -1 -48 -33 -43 -38 7 -42 10 -33 24 8 14 35 14 35 1 0 -5 5
-10 10 -10 6 0 10 14 10 30 0 29 13 40 25 20z m110 -10 c3 -5 2 -10 -4 -10 -5
0 -13 5 -16 10 -3 6 -2 10 4 10 5 0 13 -4 16 -10z m825 -25 c0 -18 -5 -25 -20
-25 -20 0 -28 28 -13 43 15 16 33 6 33 -18z m-410 -19 c-13 -13 -35 7 -25 24
5 8 11 8 21 -1 10 -8 12 -15 4 -23z m-2710 -1 c0 -8 -7 -15 -15 -15 -16 0 -20
12 -8 23 11 12 23 8 23 -8z m2237 -47 c-2 -13 -4 -3 -4 22 0 25 2 35 4 23 2
-13 2 -33 0 -45z m54 7 l-7 -40 -7 39 c-7 41 -1 64 13 49 5 -4 5 -26 1 -48z
m529 31 c0 -13 2 -31 5 -38 3 -8 -3 -25 -15 -38 -11 -13 -20 -18 -20 -12 0 7
-8 12 -19 12 -14 0 -20 10 -25 38 -10 61 -9 62 34 62 36 0 40 -3 40 -24z m594
-1 c2 -7 -2 -21 -9 -32 -11 -14 -18 -16 -31 -7 -25 15 -27 29 -9 47 17 17 40
13 49 -8z m-1208 -22 c-11 -11 -19 6 -11 24 8 17 8 17 12 0 3 -10 2 -21 -1
-24z m1922 10 c-3 -30 -23 -41 -31 -18 -9 21 2 45 20 45 10 0 13 -9 11 -27z
m540 -26 c-4 -43 -47 -51 -71 -13 -16 24 -16 26 9 45 36 29 66 13 62 -32z
m-1778 -31 c0 -9 -7 -12 -20 -9 -11 3 -20 9 -20 14 0 5 9 9 20 9 11 0 20 -6
20 -14z m-1017 -37 c-3 -10 -9 -19 -14 -19 -11 0 -12 44 -2 53 10 11 21 -13
16 -34z m-935 13 c2 -7 -2 -10 -12 -6 -9 3 -16 11 -16 16 0 13 23 5 28 -10z
m1186 9 c18 -7 18 -8 2 -14 -22 -9 -17 -39 7 -43 16 -2 22 12 18 44 -1 6 3 12
9 12 6 0 10 -29 10 -73 l0 -74 -44 -1 -44 -2 4 62 c2 39 -1 65 -7 69 -14 8 -3
29 14 28 7 0 21 -4 31 -8z m1396 5 c0 -3 -4 -8 -10 -11 -5 -3 -10 -1 -10 4 0
6 5 11 10 11 6 0 10 -2 10 -4z m-860 -21 c0 -8 -4 -15 -10 -15 -5 0 -10 7 -10
15 0 8 5 15 10 15 6 0 10 -7 10 -15z m-3550 -5 c0 -5 -9 -10 -21 -10 -11 0
-17 5 -14 10 3 6 13 10 21 10 8 0 14 -4 14 -10z m55 0 c3 -5 -1 -10 -10 -10
-9 0 -13 5 -10 10 3 6 8 10 10 10 2 0 7 -4 10 -10z m3110 -25 c0 -11 -8 -21
-17 -23 -14 -3 -18 3 -18 23 0 20 4 26 18 23 9 -2 17 -12 17 -23z m1015 4 c0
-5 -4 -9 -10 -9 -5 0 -10 7 -10 16 0 8 5 12 10 9 6 -3 10 -10 10 -16z m-3680
1 c0 -5 -7 -10 -15 -10 -8 0 -15 5 -15 10 0 6 7 10 15 10 8 0 15 -4 15 -10z
m445 -9 c9 -16 -10 -21 -51 -14 l-39 7 30 7 c45 10 53 10 60 0z m1902 -28 c-3
-10 -5 -4 -5 12 0 17 2 24 5 18 2 -7 2 -21 0 -30z m-1057 7 c-20 -13 -57 -13
-65 0 -4 6 11 10 37 10 31 0 39 -3 28 -10z m3260 1 c0 -12 -20 -25 -27 -18 -7
7 6 27 18 27 5 0 9 -4 9 -9z m335 -10 c7 -24 -3 -51 -21 -51 -18 0 -36 34 -28
54 8 22 41 20 49 -3z m-413 -6 c0 -5 -5 -11 -11 -13 -6 -2 -11 4 -11 13 0 9 5
15 11 13 6 -2 11 -8 11 -13z m-1365 -11 c-3 -3 -12 -4 -19 -1 -8 3 -5 6 6 6
11 1 17 -2 13 -5z m-337 -49 c0 -8 -4 -15 -10 -15 -5 0 -10 7 -10 15 0 8 5 15
10 15 6 0 10 -7 10 -15z m870 -25 c6 -12 8 -30 5 -40 -8 -25 -50 -27 -64 -2
-8 14 -13 15 -30 4 -14 -8 -21 -9 -21 -1 0 6 -6 9 -12 7 -7 -3 -13 -11 -13
-18 0 -7 -6 -15 -14 -18 -9 -3 -11 1 -6 17 4 15 2 21 -8 21 -8 0 -17 -9 -20
-21 -3 -12 -10 -18 -17 -14 -8 5 -8 11 1 21 9 12 5 14 -25 14 -21 0 -35 -4
-32 -9 3 -5 -3 -11 -14 -14 -11 -3 -20 -13 -20 -22 0 -25 -34 -14 -38 13 -3
18 1 22 23 22 14 0 24 4 20 10 -3 5 -15 6 -28 1 -29 -10 -57 -3 -57 15 0 13
41 21 80 15 8 -2 33 -4 55 -5 22 -1 46 -5 52 -9 6 -4 14 1 17 10 5 12 9 14 14
6 4 -6 27 -13 52 -14 36 -3 45 0 48 14 5 24 39 21 52 -3z m-3178 -20 c-4 -27
-7 -30 -41 -28 l-36 1 33 4 c26 4 32 9 32 29 0 13 4 24 8 24 5 0 7 -13 4 -30z
m982 21 c3 -4 -4 -17 -16 -27 -15 -14 -22 -16 -25 -6 -4 9 -44 12 -155 12 -83
0 -148 3 -145 6 4 4 71 6 149 5 82 -1 149 3 158 9 19 12 27 13 34 1z m1805 0
c12 -8 12 -12 2 -24 -6 -9 -13 -31 -14 -51 -4 -56 -17 -54 -17 2 0 49 -2 52
-25 52 -14 0 -25 5 -25 11 0 6 9 9 20 6 11 -3 23 -1 26 4 7 11 15 11 33 0z
m-474 -11 c3 -5 1 -10 -4 -10 -6 0 -11 5 -11 10 0 6 2 10 4 10 3 0 8 -4 11
-10z m385 -15 c0 -8 -7 -15 -15 -15 -16 0 -20 12 -8 23 11 12 23 8 23 -8z
m-2990 -30 c0 -8 -4 -15 -10 -15 -5 0 -10 7 -10 15 0 8 5 15 10 15 6 0 10 -7
10 -15z m3620 5 c0 -5 -4 -10 -9 -10 -6 0 -13 5 -16 10 -3 6 1 10 9 10 9 0 16
-4 16 -10z m420 -11 c0 -12 -47 -12 -55 0 -3 5 5 11 17 13 27 5 38 1 38 -13z
m-3129 -28 c-12 -16 -21 -32 -21 -35 0 -3 37 -6 83 -6 l83 0 59 -60 c33 -33
57 -60 54 -60 -3 0 -31 25 -61 55 l-55 55 -91 0 c-83 0 -91 2 -84 18 11 28 36
62 45 62 5 0 -1 -13 -12 -29z m294 19 c29 -7 28 -8 -10 -8 -22 0 -49 3 -60 8
-17 7 -15 9 10 8 17 0 44 -4 60 -8z m108 4 c12 -12 -6 -34 -28 -34 -22 0 -40
22 -28 34 4 3 16 6 28 6 12 0 24 -3 28 -6z m2885 -1 c-15 -2 -42 -2 -60 0 -18
2 -6 4 27 4 33 0 48 -2 33 -4z m-4348 -33 c0 -5 -2 -10 -4 -10 -3 0 -8 5 -11
10 -3 6 -1 10 4 10 6 0 11 -4 11 -10z m3538 -22 c-5 -15 -58 -24 -58 -10 0 15
12 22 38 22 14 0 22 -5 20 -12z m826 -30 c4 -23 1 -34 -11 -44 -15 -10 -19
-10 -25 4 -8 22 -10 67 -2 75 13 12 32 -6 38 -35z m-4364 17 c0 -16 -35 -21
-45 -6 -4 8 9 15 38 20 4 0 7 -6 7 -14z m5048 -13 c2 -14 -2 -22 -12 -22 -19
0 -28 14 -20 35 9 21 28 14 32 -13z m-4940 -24 c-7 -13 -11 -27 -10 -32 2 -5
0 -22 -3 -37 -6 -26 -11 -29 -45 -29 -26 0 -42 6 -49 17 -8 14 -12 15 -25 4
-19 -16 -46 -8 -46 13 0 22 31 35 100 43 53 5 61 8 57 25 -4 13 0 18 14 18 17
0 18 -3 7 -22z m5420 0 c3 -16 -7 -18 -100 -17 -97 0 -135 10 -122 30 3 6 54
8 112 7 92 -3 107 -5 110 -20z m-2733 2 c3 -5 1 -10 -4 -10 -6 0 -11 5 -11 10
0 6 2 10 4 10 3 0 8 -4 11 -10z m-4087 -12 c-6 -18 -28 -21 -28 -4 0 9 7 16
16 16 9 0 14 -5 12 -12z m1502 1 c0 -5 -9 -9 -20 -9 -11 0 -20 4 -20 8 0 4 9
8 20 9 11 1 20 -2 20 -8z m3558 -27 c3 -31 1 -33 -24 -30 -35 4 -53 30 -34 53
23 27 55 15 58 -23z m310 -12 c1 -36 -3 -50 -13 -50 -10 0 -14 14 -13 50 0 33
4 50 12 50 8 0 13 -18 14 -50z m-68 30 c0 -5 -4 -10 -9 -10 -6 0 -13 5 -16 10
-3 6 1 10 9 10 9 0 16 -4 16 -10z m-3700 -13 c0 -8 17 -18 38 -24 33 -9 34
-11 10 -12 -15 0 -31 -9 -37 -18 -9 -17 -10 -17 -16 0 -9 21 -35 23 -35 2 0
-8 -4 -15 -9 -15 -5 0 -17 -3 -26 -6 -14 -6 -16 -1 -13 27 2 29 7 34 26 32 14
-2 22 3 22 12 0 8 9 15 20 15 11 0 20 -6 20 -13z m889 -22 c17 -20 31 -39 31
-43 -1 -4 -16 10 -34 30 -32 37 -33 37 -122 41 l-89 3 91 2 92 2 31 -35z
m3078 3 c-3 -7 -5 -2 -5 12 0 14 2 19 5 13 2 -7 2 -19 0 -25z m-437 6 c0 -8
-5 -12 -10 -9 -6 4 -8 11 -5 16 9 14 15 11 15 -7z m164 -16 c8 -32 -10 -46
-31 -25 -11 11 -13 17 -5 17 7 0 12 7 12 15 0 23 17 18 24 -7z m616 7 c0 -8
-4 -15 -10 -15 -5 0 -10 7 -10 15 0 8 5 15 10 15 6 0 10 -7 10 -15z m-1245 -5
c3 -5 -1 -10 -10 -10 -9 0 -13 5 -10 10 3 6 8 10 10 10 2 0 7 -4 10 -10z
m-1987 -25 c-3 -3 -13 -2 -22 1 -14 5 -15 9 -4 15 13 8 36 -6 26 -16z m2932
21 c0 -3 -4 -8 -10 -11 -5 -3 -10 -1 -10 4 0 6 5 11 10 11 6 0 10 -2 10 -4z
m-1650 -18 c0 -4 -5 -10 -10 -13 -6 -4 -8 -11 -5 -16 9 -14 -28 -10 -47 5 -29
21 -21 33 22 32 22 0 40 -4 40 -8z m-1690 -2 c0 -3 -4 -8 -10 -11 -5 -3 -10
-1 -10 4 0 6 5 11 10 11 6 0 10 -2 10 -4z m137 -12 c-3 -3 -12 -4 -19 -1 -8 3
-5 6 6 6 11 1 17 -2 13 -5z m73 -35 c0 -10 -7 -19 -15 -19 -12 0 -13 4 -6 19
6 10 7 22 3 26 -4 5 -1 5 6 1 6 -4 12 -16 12 -27z m103 -2 c9 -4 17 -11 17
-17 0 -18 -16 -11 -46 22 -16 18 -20 26 -9 17 11 -9 28 -19 38 -22z m2196 -12
c-18 -25 -40 -51 -49 -58 -13 -10 -13 -10 1 8 8 11 27 37 43 58 15 20 29 37
32 37 3 0 -9 -20 -27 -45z m-2539 27 c0 -5 -7 -17 -15 -28 -14 -18 -14 -17 -4
9 12 27 19 34 19 19z m1770 -2 c0 -5 -2 -10 -4 -10 -3 0 -8 5 -11 10 -3 6 -1
10 4 10 6 0 11 -4 11 -10z m17 -12 c-3 -8 -6 -5 -6 6 -1 11 2 17 5 13 3 -3 4
-12 1 -19z m-2647 1 c0 -6 -22 -9 -55 -8 -81 3 -91 19 -12 19 40 0 67 -4 67
-11z m173 4 c-13 -2 -33 -2 -45 0 -13 2 -3 4 22 4 25 0 35 -2 23 -4z m-1903
-23 c0 -14 -33 -21 -44 -10 -8 8 -7 13 3 19 15 10 41 4 41 -9z m4666 -5 c8
-20 -13 -45 -32 -38 -8 3 -14 16 -14 29 0 17 6 24 20 24 11 0 23 -7 26 -15z
m1747 -21 c8 -8 -3 -34 -14 -34 -5 0 -9 9 -9 20 0 19 11 26 23 14z m-613 -39
c18 -22 3 -55 -26 -55 -15 0 -24 6 -24 15 0 13 -24 15 -147 17 l-148 2 145 3
c114 3 146 7 153 18 10 19 31 19 47 0z m-4050 -19 c0 -15 -18 -31 -26 -23 -7
7 7 37 17 37 5 0 9 -6 9 -14z m3035 4 c9 -15 258 -13 274 3 10 10 11 9 6 -5
-6 -16 -23 -18 -145 -18 -81 0 -140 -4 -142 -10 -4 -14 -48 0 -48 15 0 22 44
33 55 15z m2543 -23 c3 -16 -5 -18 -82 -16 -74 1 -86 4 -86 19 0 15 11 17 82
16 71 -1 83 -4 86 -19z m-2734 -2 c-4 -8 -8 -15 -10 -15 -2 0 -4 7 -4 15 0 8
4 15 10 15 5 0 7 -7 4 -15z m-441 -2 c-13 -2 -35 -2 -50 0 -16 2 -5 4 22 4 28
0 40 -2 28 -4z m1536 -27 c15 -18 -2 -56 -24 -56 -26 0 -46 29 -35 51 13 22
43 25 59 5z m-109 -17 c0 -25 -33 -22 -38 4 -2 12 3 17 17 17 15 0 21 -6 21
-21z m-2953 -13 c-4 -10 2 -16 16 -19 18 -4 17 -5 -5 -6 -22 -1 -28 4 -28 19
0 11 5 20 11 20 6 0 9 -6 6 -14z m2163 4 c0 -5 -14 -10 -31 -10 -17 0 -28 4
-24 10 3 6 17 10 31 10 13 0 24 -4 24 -10z m615 0 c3 -5 1 -10 -4 -10 -6 0
-11 5 -11 10 0 6 2 10 4 10 3 0 8 -4 11 -10z m473 -2 c7 -7 12 -22 12 -35 0
-13 4 -23 9 -23 5 0 18 -16 30 -35 19 -33 19 -35 2 -26 -15 8 -20 5 -29 -14
-7 -14 -18 -25 -27 -25 -16 0 -18 -11 -15 -72 1 -33 -1 -38 -20 -38 -20 0 -21
3 -15 53 4 28 8 62 9 75 0 13 9 28 19 33 23 13 22 25 -3 32 -26 7 -35 33 -22
63 13 26 31 31 50 12z m807 -18 c0 -16 -6 -26 -18 -28 -19 -4 -32 20 -23 44 9
25 41 13 41 -16z m-1737 -45 c-3 -3 -9 2 -12 12 -6 14 -5 15 5 6 7 -7 10 -15
7 -18z m-171 -1 c-3 -3 -12 -4 -19 -1 -8 3 -5 6 6 6 11 1 17 -2 13 -5z m-3
-40 c10 -27 7 -34 -19 -34 -18 0 -25 5 -25 18 0 34 33 45 44 16z m2210 -5 c13
-12 -7 -17 -99 -22 -87 -5 -105 -2 -105 18 0 7 6 16 13 19 18 8 180 -4 191
-15z m-1441 -6 c-24 -2 -62 -2 -85 0 -24 2 -5 4 42 4 47 0 66 -2 43 -4z m165
0 c-10 -2 -26 -2 -35 0 -10 3 -2 5 17 5 19 0 27 -2 18 -5z m85 0 c-7 -2 -21
-2 -30 0 -10 3 -4 5 12 5 17 0 24 -2 18 -5z m342 -28 c0 -23 -4 -30 -20 -30
-21 0 -31 25 -21 51 11 28 41 12 41 -21z m-2925 12 c0 8 13 9 43 5 23 -3 57
-6 75 -6 26 -1 32 -5 32 -22 0 -20 -6 -22 -72 -26 -92 -5 -108 -1 -108 26 0
28 11 40 22 24 5 -9 8 -9 8 -1z m997 -9 c-3 -8 -6 -5 -6 6 -1 11 2 17 5 13 3
-3 4 -12 1 -19z m-772 -65 c-1 -131 -5 -206 -11 -200 -15 15 -22 231 -9 266
11 27 20 -4 20 -66z m2846 67 c6 0 7 -4 4 -10 -7 -12 -55 -13 -55 -2 0 15 13
23 28 17 7 -3 18 -5 23 -5z m-2053 -38 c-10 -2 -18 -11 -19 -20 0 -14 -2 -13
-8 3 -11 27 -5 34 22 27 18 -5 19 -7 5 -10z m-1611 -14 c-3 -8 -6 -5 -6 6 -1
11 2 17 5 13 3 -3 4 -12 1 -19z m155 -75 l4 -73 -36 1 c-23 1 -27 3 -12 6 12
2 23 9 23 14 1 5 3 14 4 19 1 6 3 36 5 68 2 73 8 57 12 -35z m2564 44 c-31
-41 -32 -47 -6 -47 23 0 24 -8 10 -44 -14 -38 -40 -34 -40 7 l-1 32 -31 -35
c-29 -32 -30 -33 -13 -5 10 17 24 40 30 51 9 18 64 73 73 74 2 0 -8 -15 -22
-33z m282 -10 c3 -34 1 -37 -22 -37 -23 0 -26 4 -26 33 0 38 7 49 30 45 9 -2
16 -16 18 -41z m-2271 -12 c-4 -8 -11 -15 -17 -15 -14 0 -13 27 3 33 16 6 21
1 14 -18z m-437 11 c0 -3 -4 -8 -10 -11 -5 -3 -10 -1 -10 4 0 6 5 11 10 11 6
0 10 -2 10 -4z m3878 -22 c4 -29 -23 -51 -43 -34 -16 13 -20 42 -8 54 14 14
48 1 51 -20z m-1638 -14 c0 -5 -7 -10 -15 -10 -8 0 -15 5 -15 10 0 6 7 10 15
10 8 0 15 -4 15 -10z m1408 -13 c27 -18 -3 -27 -83 -27 -69 0 -83 3 -79 14 8
22 132 31 162 13z m-4152 -95 c-11 -10 -12 3 -7 53 l6 50 3 -49 c2 -26 1 -51
-2 -54z m528 63 c-4 -18 -1 -27 10 -31 25 -10 19 -34 -8 -34 -33 0 -37 9 -23
53 13 41 31 52 21 12z m-68 -10 c-3 -8 -1 -15 4 -15 6 0 10 -10 10 -22 l0 -22
-20 22 c-24 26 -26 52 -4 52 10 0 14 -6 10 -15z m1962 -47 l207 -3 -207 -2
-208 -3 -1 -28 c0 -15 -3 -21 -6 -14 -2 6 -11 12 -19 12 -8 0 -14 10 -14 25 0
16 6 25 15 25 8 0 16 6 16 13 1 6 3 4 6 -5 4 -16 24 -18 211 -20z m-2328 2 c0
-5 -4 -10 -10 -10 -5 0 -10 5 -10 10 0 6 5 10 10 10 6 0 10 -4 10 -10z m39
-17 c-1 -17 -3 -21 -6 -10 -2 9 -9 17 -14 17 -5 0 -9 5 -9 10 0 6 7 10 15 10
10 0 15 -9 14 -27z m4156 7 c0 -7 -6 -15 -12 -17 -8 -3 -13 4 -13 17 0 13 5
20 13 18 6 -3 12 -11 12 -18z m-1198 -6 c-3 -3 -12 -4 -19 -1 -8 3 -5 6 6 6
11 1 17 -2 13 -5z m123 -3 c0 -4 -11 -6 -25 -3 -14 2 -25 6 -25 8 0 2 11 4 25
4 14 0 25 -4 25 -9z m190 -16 c7 -9 10 -25 6 -41 -5 -20 -12 -25 -34 -22 -19
2 -28 9 -30 26 -6 43 33 68 58 37z m630 -11 c0 -17 -22 -14 -28 4 -2 7 3 12
12 12 9 0 16 -7 16 -16z m130 -25 c0 -24 -23 -21 -28 4 -2 10 3 17 12 17 10 0
16 -9 16 -21z m-2167 -61 c7 -20 -4 -38 -22 -38 -24 0 -30 8 -24 31 6 21 39
26 46 7z m117 -28 c44 0 70 4 72 12 5 13 38 4 38 -11 0 -10 -189 -20 -196 -10
-1 3 0 16 4 30 7 24 7 24 10 2 3 -21 9 -23 72 -23z m1055 0 c0 -26 -5 -36 -19
-38 -10 -2 -23 3 -28 12 -8 14 -35 16 -193 16 -183 0 -184 0 -187 -22 -2 -18
-11 -24 -34 -26 -27 -3 -33 1 -38 22 -6 25 -9 26 -79 26 -69 0 -74 -2 -89 -27
-10 -16 -34 -47 -55 -70 l-38 -43 -19 28 -20 27 23 -20 23 -20 25 30 c13 17
36 47 50 68 l26 37 73 0 c41 0 74 4 74 9 0 18 63 22 82 5 16 -15 38 -16 189
-11 139 4 175 9 188 22 26 25 46 14 46 -25z m-1275 15 c0 -8 -9 -15 -20 -15
-11 0 -20 7 -20 15 0 8 9 15 20 15 11 0 20 -7 20 -15z m745 5 c3 -5 1 -10 -4
-10 -6 0 -11 5 -11 10 0 6 2 10 4 10 3 0 8 -4 11 -10z m-1575 -20 c0 -5 -4
-10 -10 -10 -5 0 -10 5 -10 10 0 6 5 10 10 10 6 0 10 -4 10 -10z m1234 1 c4
-5 -1 -8 -9 -7 -21 3 -31 16 -12 16 9 0 18 -4 21 -9z m1556 -21 c0 -37 -25
-50 -45 -24 -17 23 -3 54 25 54 16 0 20 -7 20 -30z m310 -4 c0 -8 -4 -17 -9
-21 -12 -7 -24 12 -16 25 9 15 25 12 25 -4z m-1883 -18 c-3 -8 -6 -5 -6 6 -1
11 2 17 5 13 3 -3 4 -12 1 -19z m1456 15 c-29 -2 -78 -2 -110 0 -32 2 -8 3 52
3 61 0 87 -1 58 -3z m-276 -10 c-20 -2 -52 -2 -70 0 -17 2 0 4 38 4 39 0 53
-2 32 -4z m-3667 -27 c0 -2 -9 -6 -20 -9 -11 -3 -18 -1 -14 4 5 9 34 13 34 5z
m3660 -92 c0 -52 -4 -74 -12 -74 -9 0 -13 20 -11 73 2 91 1 89 13 82 6 -3 10
-40 10 -81z m-2100 72 c0 -3 -4 -8 -10 -11 -5 -3 -10 -1 -10 4 0 6 5 11 10 11
6 0 10 -2 10 -4z m3290 -51 c0 -8 -4 -15 -9 -15 -13 0 -22 16 -14 24 11 11 23
6 23 -9z m-4180 -25 c-24 -15 -37 -11 -16 5 11 8 22 12 25 9 3 -3 -1 -9 -9
-14z m1800 5 c0 -8 -2 -15 -4 -15 -2 0 -6 7 -10 15 -3 8 -1 15 4 15 6 0 10 -7
10 -15z m60 5 c0 -5 -5 -10 -11 -10 -5 0 -7 5 -4 10 3 6 8 10 11 10 2 0 4 -4
4 -10z m204 -15 c3 -8 1 -15 -4 -15 -6 0 -10 7 -10 15 0 8 2 15 4 15 2 0 6 -7
10 -15z m316 -6 c0 -5 -11 -9 -25 -9 -28 0 -34 16 -7 23 20 4 32 -1 32 -14z
m178 13 c37 -2 44 -22 7 -22 -14 0 -28 -7 -31 -15 -4 -8 -12 -15 -19 -15 -7 0
-15 7 -19 15 -3 8 -15 15 -26 15 -11 0 -20 4 -20 8 0 18 5 18 108 14z m-2778
-6 c0 -2 -7 -6 -15 -10 -8 -3 -15 -1 -15 4 0 6 7 10 15 10 8 0 15 -2 15 -4z
m840 -16 c0 -12 -29 -20 -35 -10 -9 15 4 30 20 23 8 -3 15 -9 15 -13z m1410 0
c0 -11 -4 -20 -10 -20 -5 0 -10 9 -10 20 0 11 5 20 10 20 6 0 10 -9 10 -20z
m-1610 -5 c0 -8 -7 -15 -15 -15 -8 0 -15 7 -15 15 0 8 7 15 15 15 8 0 15 -7
15 -15z m3225 -4 c14 -45 -24 -72 -55 -39 -18 20 -19 23 -3 40 21 23 50 23 58
-1z m-1947 -59 c3 -17 -2 -22 -18 -22 -25 0 -38 29 -19 41 20 13 34 6 37 -19z
m760 -3 c-2 -6 -8 -10 -13 -10 -5 0 -11 4 -13 10 -2 6 4 11 13 11 9 0 15 -5
13 -11z m105 4 c-7 -2 -21 -2 -30 0 -10 3 -4 5 12 5 17 0 24 -2 18 -5z m-1807
-30 c-10 -10 -19 5 -10 18 6 11 8 11 12 0 2 -7 1 -15 -2 -18z m-646 -8 c0 -8
-3 -15 -6 -15 -3 0 -12 7 -20 15 -14 13 -13 15 5 15 12 0 21 -6 21 -15z m1137
-17 c-3 -8 -6 -5 -6 6 -1 11 2 17 5 13 3 -3 4 -12 1 -19z m-1583 3 c3 -5 -1
-14 -9 -21 -13 -10 -15 -9 -15 9 0 21 14 28 24 12z m4146 -1 c0 -5 -4 -10 -10
-10 -5 0 -10 5 -10 10 0 6 5 10 10 10 6 0 10 -4 10 -10z m-1675 -40 c-3 -5
-10 -10 -16 -10 -5 0 -9 5 -9 10 0 6 7 10 16 10 8 0 12 -4 9 -10z m-1010 -237
c11 -3 15 -19 13 -52 -1 -37 -2 -40 -5 -13 -3 18 -11 36 -19 39 -11 4 -14 28
-14 109 0 63 -4 104 -10 104 -14 0 -12 28 3 33 9 3 13 -23 15 -105 2 -85 6
-110 17 -115z m315 128 c0 -33 -4 -63 -10 -66 -6 -4 -10 18 -10 59 0 37 4 66
10 66 6 0 10 -26 10 -59z m1655 -5 c0 -36 -26 -56 -49 -37 -16 14 -22 52 -9
65 4 4 19 6 33 4 20 -2 25 -8 25 -32z m-1568 -83 c-2 -21 -4 -6 -4 32 0 39 2
55 4 38 2 -18 2 -50 0 -70z m-299 69 c2 -7 -3 -12 -12 -12 -9 0 -16 7 -16 16
0 17 22 14 28 -4z m-258 -48 c0 -21 -4 -25 -22 -22 -35 5 -33 48 3 48 14 0 19
-7 19 -26z m1190 17 c0 -5 -16 -11 -35 -13 -34 -4 -43 1 -28 15 10 10 63 8 63
-2z m43 -93 l102 -2 -102 -3 c-57 -2 -103 -7 -103 -11 0 -4 -56 -7 -125 -7
-69 0 -125 3 -125 8 0 7 48 11 108 7 19 -1 56 1 83 5 46 7 49 9 51 38 l1 32 4
-32 4 -33 102 -2z m-976 20 c24 -23 33 -48 9 -29 -7 6 -21 9 -30 5 -12 -5 -16
0 -16 20 0 32 7 32 37 4z m-1585 -23 c-6 -34 -12 -32 -12 6 0 16 4 28 9 25 4
-3 6 -17 3 -31z m1991 -19 c56 3 114 9 128 14 15 4 31 5 35 0 5 -4 18 -10 29
-13 11 -3 -23 -5 -75 -6 -52 -1 -124 -5 -160 -9 -36 -4 -78 -4 -95 -1 -25 6
-26 7 -7 8 16 1 26 9 30 24 l7 22 3 -22 c3 -22 6 -22 105 -17z m-913 4 c0 -5
-16 -10 -36 -10 -21 0 -33 4 -29 10 3 6 19 10 36 10 16 0 29 -4 29 -10z m2610
-31 c0 -20 -28 -39 -47 -32 -19 7 -16 51 4 62 22 12 43 -3 43 -30z m-384 -4
c10 -20 9 -27 -5 -40 -23 -20 -50 -19 -57 3 -3 9 -10 25 -15 35 -7 14 -5 19
13 26 31 11 51 4 64 -24z m-1645 -52 c-6 -28 -6 -28 -9 7 -2 19 -9 42 -15 50
-7 9 -2 6 9 -6 16 -17 20 -30 15 -51z m-1623 47 c28 0 33 -3 22 -10 -8 -5 -25
-10 -37 -10 -19 0 -23 -5 -23 -35 0 -22 6 -38 18 -44 16 -10 16 -10 0 -11 -10
0 -18 -7 -18 -17 0 -9 -3 -13 -7 -10 -3 4 -5 32 -4 63 l2 56 -41 -4 c-22 -2
-40 0 -40 4 0 5 18 8 40 8 31 0 40 4 41 18 0 10 3 12 6 5 2 -7 21 -13 41 -13z
m1167 -40 c0 -20 -6 -26 -28 -28 -26 -3 -27 -1 -23 25 2 15 5 29 5 31 1 2 11
2 24 0 16 -2 22 -10 22 -28z m2345 8 c0 -17 -3 -19 -9 -9 -5 7 -15 17 -22 22
-10 6 -8 9 9 9 16 0 22 -6 22 -22z m-1830 8 c0 -2 -3 -11 -6 -20 -9 -23 -24
-20 -24 4 0 11 7 20 15 20 8 0 15 -2 15 -4z m2625 -17 c10 -15 -1 -23 -20 -15
-9 3 -13 10 -10 16 8 13 22 13 30 -1z m-4430 -9 c3 -5 1 -10 -4 -10 -6 0 -11
5 -11 10 0 6 2 10 4 10 3 0 8 -4 11 -10z m2463 -63 c3 -37 2 -38 -25 -35 -23
2 -29 9 -31 32 -4 30 12 48 38 43 10 -1 16 -16 18 -40z m-2458 3 c0 -5 -4 -10
-9 -10 -6 0 -13 5 -16 10 -3 6 1 10 9 10 9 0 16 -4 16 -10z m1897 -2 c10 -16
78 -168 103 -229 10 -26 28 -66 39 -90 100 -219 150 -333 147 -336 -2 -2 -32
-1 -66 3 l-62 7 -31 68 -30 69 -166 0 -166 0 -31 -73 -31 -72 -56 -3 c-36 -2
-57 1 -57 8 0 6 11 32 24 58 13 26 43 92 66 147 23 55 72 168 109 250 38 83
73 162 79 178 11 25 16 27 66 27 33 0 58 -5 63 -12z m698 -18 c4 -6 -14 -10
-47 -9 -39 0 -48 3 -33 9 28 12 73 12 80 0z m-3618 -57 c-3 -10 -5 -2 -5 17 0
19 2 27 5 18 2 -10 2 -26 0 -35z m2310 0 c-3 -10 -5 -2 -5 17 0 19 2 27 5 18
2 -10 2 -26 0 -35z m910 5 c-3 -7 -5 -2 -5 12 0 14 2 19 5 13 2 -7 2 -19 0
-25z m123 16 c0 -17 -22 -14 -28 4 -2 7 3 12 12 12 9 0 16 -7 16 -16z m-2420
-5 c0 -7 17 -10 45 -7 25 2 45 0 45 -4 0 -5 -25 -8 -55 -8 -42 0 -55 3 -55 15
0 8 5 15 10 15 6 0 10 -5 10 -11z m1756 -16 c-10 -10 -19 5 -10 18 6 11 8 11
12 0 2 -7 1 -15 -2 -18z m514 17 c0 -5 -4 -10 -10 -10 -5 0 -10 5 -10 10 0 6
5 10 10 10 6 0 10 -4 10 -10z m1438 -61 c4 -30 -22 -46 -44 -28 -15 12 -19 41
-7 53 16 16 48 1 51 -25z m-5028 -18 c0 -10 -30 -24 -37 -17 -3 3 -2 9 2 15 8
13 35 15 35 2z m2757 -21 c71 -16 74 -19 67 -73 l-7 -46 -31 16 c-41 22 -182
29 -216 11 -29 -15 -38 -59 -17 -76 7 -7 49 -18 92 -27 115 -22 140 -32 175
-71 59 -67 33 -172 -54 -213 -54 -27 -208 -29 -279 -5 -46 16 -47 16 -47 60 0
24 2 44 4 44 2 0 22 -7 45 -15 102 -35 228 -28 251 15 25 47 1 66 -113 90
-137 28 -181 55 -193 116 -12 66 40 147 111 172 40 14 152 15 212 2z m2968
-10 c9 -27 -1 -40 -31 -40 -20 0 -24 5 -24 30 0 25 4 30 24 30 16 0 27 -7 31
-20z m-4102 -4 c82 -35 97 -82 97 -306 l0 -177 -32 6 c-32 4 -32 5 -8 12 22 6
21 7 -10 8 l-35 1 -3 113 c-2 61 2 127 7 144 6 20 6 35 0 38 -5 4 -9 15 -9 26
0 10 -10 29 -22 41 -16 16 -17 20 -5 15 9 -3 17 -2 17 4 0 5 6 9 13 8 32 -4
38 0 25 21 -7 11 -17 20 -22 20 -6 0 -5 -5 2 -12 17 -17 15 -33 -3 -18 -11 9
-15 9 -15 1 0 -7 -5 -9 -10 -6 -6 3 -7 17 -4 29 5 21 1 25 -43 34 l-48 10 38
1 c21 0 52 -5 70 -13z m691 -233 c-3 -142 -10 -248 -15 -247 -5 1 -27 2 -48 3
-38 1 -40 2 -43 39 l-3 37 -29 -32 c-37 -41 -85 -57 -152 -50 -66 7 -107 34
-136 90 -20 38 -22 57 -23 219 l0 178 48 0 47 0 1 -67 c0 -38 0 -109 -1 -160
-2 -136 25 -173 127 -173 39 0 50 5 84 39 l39 39 0 159 c0 88 3 163 7 166 3 4
28 7 54 7 l48 0 -5 -247z m-1257 205 c-3 -7 -5 -2 -5 12 0 14 2 19 5 13 2 -7
2 -19 0 -25z m292 -17 c23 -32 28 -50 9 -29 -71 78 -73 81 -51 69 12 -6 31
-24 42 -40z m3318 7 c-3 -8 -6 -5 -6 6 -1 11 2 17 5 13 3 -3 4 -12 1 -19z
m-317 -7 c0 -11 -5 -23 -11 -27 -15 -9 -33 12 -26 30 9 23 37 20 37 -3z m-180
-81 c0 -62 4 -90 12 -90 6 0 9 -2 6 -5 -3 -3 -13 -3 -22 1 -13 5 -16 22 -16
95 0 53 4 89 10 89 6 0 10 -37 10 -90z m400 70 c0 -11 -4 -20 -10 -20 -5 0
-10 9 -10 20 0 11 5 20 10 20 6 0 10 -9 10 -20z m570 5 c0 -8 -4 -15 -10 -15
-5 0 -10 7 -10 15 0 8 5 15 10 15 6 0 10 -7 10 -15z m805 6 c3 -5 1 -12 -5
-16 -5 -3 -10 1 -10 9 0 18 6 21 15 7z m-3095 -37 c0 -14 -4 -23 -10 -19 -5 3
-10 15 -10 26 0 10 5 19 10 19 6 0 10 -12 10 -26z m-1420 -21 c-17 -19 -31
-35 -31 -36 -1 -1 -5 -81 -9 -177 l-6 -175 -2 169 c-2 163 -1 171 22 211 14
23 32 42 40 42 11 0 6 -10 -14 -34z m-1914 12 c14 -13 13 -15 -10 -15 -18 0
-24 4 -20 15 4 8 8 15 11 15 2 0 11 -7 19 -15z m5882 -29 c-4 -28 -48 -36 -48
-9 0 11 5 24 11 30 17 17 40 4 37 -21z m-530 13 c-2 -6 -8 -10 -13 -10 -5 0
-11 4 -13 10 -2 6 4 11 13 11 9 0 15 -5 13 -11z m-1236 -82 c-8 -41 -10 -45
-11 -19 -1 27 -5 32 -26 32 -18 0 -23 4 -19 15 4 10 13 13 25 10 16 -5 19 -1
19 22 1 24 2 26 11 10 7 -12 7 -35 1 -70z m-2572 -122 l-6 -170 -2 157 c-1 86
1 164 4 173 4 9 7 15 8 13 0 -2 -1 -79 -4 -173z m-2081 121 c16 -19 -19 -62
-42 -53 -20 7 -22 38 -5 55 16 16 33 15 47 -2z m6151 -6 c0 -11 -6 -20 -14
-20 -18 0 -29 16 -21 30 11 18 35 11 35 -10z m970 5 c0 -8 -7 -15 -15 -15 -8
0 -15 7 -15 15 0 8 7 15 15 15 8 0 15 -7 15 -15z m-2021 -199 c9 -11 10 -20 1
-35 -12 -23 -12 -23 -34 -15 -19 7 -21 35 -4 52 16 16 23 15 37 -2z m189 -9
c3 -12 -3 -17 -22 -17 -25 0 -35 18 -19 34 12 12 38 2 41 -17z m-148 -7 c0 -5
-4 -10 -10 -10 -5 0 -10 5 -10 10 0 6 5 10 10 10 6 0 10 -4 10 -10z m660 -29
c0 -33 -11 -44 -34 -35 -10 4 -16 18 -16 35 0 24 4 29 25 29 21 0 25 -5 25
-29z m-3913 -18 c-3 -10 -5 -4 -5 12 0 17 2 24 5 18 2 -7 2 -21 0 -30z m2929
-44 c4 -8 0 -9 -15 -4 -18 5 -21 2 -21 -20 0 -22 3 -25 21 -20 15 5 20 3 17
-6 -3 -8 -13 -15 -24 -17 -25 -4 -52 57 -31 70 18 11 45 10 53 -3z m-1116
-100 c0 -25 -33 -22 -38 4 -2 12 3 17 17 17 15 0 21 -6 21 -21z m-174 -26
c-11 -11 -19 6 -11 24 8 17 8 17 12 0 3 -10 2 -21 -1 -24z m2699 -34 c8 -24
-11 -59 -33 -59 -30 1 -50 23 -41 47 15 42 62 50 74 12z m-2215 -13 c0 -8 -4
-17 -9 -21 -12 -7 -24 12 -16 25 9 15 25 12 25 -4z m-1340 -16 c0 -5 -4 -10
-10 -10 -5 0 -10 5 -10 10 0 6 5 10 10 10 6 0 10 -4 10 -10z m2405 1 c3 -5 1
-12 -5 -16 -5 -3 -10 1 -10 9 0 18 6 21 15 7z m-365 -26 c0 -18 -5 -25 -19
-25 -11 0 -21 6 -24 13 -7 20 4 37 24 37 14 0 19 -7 19 -25z m677 -30 c7 -20
-2 -29 -21 -22 -9 4 -13 13 -10 22 8 19 23 19 31 0z m-1217 -76 c16 -29 -4
-50 -46 -47 -30 2 -34 5 -34 31 0 15 4 26 9 22 5 -3 12 -1 16 5 11 17 44 11
55 -11z m463 -14 c1 -5 -6 -11 -15 -13 -11 -2 -18 3 -18 13 0 17 30 18 33 0z
m639 -77 c-15 -15 -26 -4 -18 18 5 13 9 15 18 6 9 -9 9 -15 0 -24z m-1105 -4
c-9 -9 -28 6 -21 18 4 6 10 6 17 -1 6 -6 8 -13 4 -17z m104 -7 c-13 -13 -26
-3 -16 12 3 6 11 8 17 5 6 -4 6 -10 -1 -17z m-4071 -81 c-15 -15 -33 4 -19 20
10 12 14 12 20 2 5 -7 4 -17 -1 -22z m4220 17 c0 -10 -4 -14 -8 -8 -4 6 -11
13 -16 18 -5 4 -2 7 7 7 10 0 17 -8 17 -17z m440 -13 c0 -5 -4 -10 -10 -10 -5
0 -10 5 -10 10 0 6 5 10 10 10 6 0 10 -4 10 -10z m-917 -25 c-7 -21 -13 -19
-13 6 0 11 4 18 10 14 5 -3 7 -12 3 -20z m37 5 c0 -5 -2 -10 -4 -10 -3 0 -8 5
-11 10 -3 6 -1 10 4 10 6 0 11 -4 11 -10z m437 -12 c-3 -8 -6 -5 -6 6 -1 11 2
17 5 13 3 -3 4 -12 1 -19z m563 -23 c19 -23 8 -50 -20 -50 -19 0 -26 6 -28 24
-5 35 26 53 48 26z m358 -23 c3 -17 -2 -22 -17 -22 -14 0 -21 6 -21 18 0 38
33 41 38 4z m-1211 -34 c-3 -8 -6 -5 -6 6 -1 11 2 17 5 13 3 -3 4 -12 1 -19z
m1848 -33 c0 -23 -5 -31 -21 -33 -26 -4 -38 22 -23 49 16 30 44 20 44 -16z
m-2375 15 c0 -5 -2 -10 -4 -10 -3 0 -8 5 -11 10 -3 6 -1 10 4 10 6 0 11 -4 11
-10z m817 -52 c-2 -13 -4 -3 -4 22 0 25 2 35 4 23 2 -13 2 -33 0 -45z m73 37
c0 -8 -4 -15 -10 -15 -5 0 -10 7 -10 15 0 8 5 15 10 15 6 0 10 -7 10 -15z
m-363 -42 c-3 -10 -5 -2 -5 17 0 19 2 27 5 18 2 -10 2 -26 0 -35z m2063 37 c0
-5 -4 -10 -10 -10 -5 0 -10 5 -10 10 0 6 5 10 10 10 6 0 10 -4 10 -10z m-2595
-19 c-3 -6 -14 -10 -23 -10 -15 1 -15 2 1 6 9 2 17 9 17 15 0 6 3 9 6 5 3 -3
3 -10 -1 -16z m483 -33 c-4 -43 -32 -45 -35 -3 -1 18 1 22 4 10 9 -37 26 -43
20 -7 -4 19 -2 32 4 32 6 0 9 -15 7 -32z m-2342 -29 c9 -16 -12 -33 -31 -25
-14 5 -15 9 -5 21 15 18 26 19 36 4z m1964 -59 c0 -35 -25 -42 -35 -10 -8 24
1 40 21 40 9 0 14 -11 14 -30z m2750 15 c0 -8 -7 -15 -15 -15 -16 0 -20 12 -8
23 11 12 23 8 23 -8z m-1690 -111 c0 -17 -22 -14 -28 4 -2 7 3 12 12 12 9 0
16 -7 16 -16z m-3305 -14 c-3 -5 -13 -10 -21 -10 -8 0 -14 5 -14 10 0 6 9 10
21 10 11 0 17 -4 14 -10z m3055 -71 c0 -10 -4 -19 -9 -19 -5 0 -8 11 -8 25 0
13 3 22 8 19 5 -3 9 -14 9 -25z m-33 -11 c-3 -7 -5 -2 -5 12 0 14 2 19 5 13 2
-7 2 -19 0 -25z m853 2 c0 -5 -4 -10 -10 -10 -5 0 -10 5 -10 10 0 6 5 10 10
10 6 0 10 -4 10 -10z m-292 -63 c5 -23 -16 -47 -34 -40 -14 5 -19 44 -7 57 12
12 38 1 41 -17z m-1993 -27 c-5 -8 -11 -8 -17 -2 -6 6 -7 16 -3 22 5 8 11 8
17 2 6 -6 7 -16 3 -22z m1718 -32 c6 -18 -11 -48 -28 -48 -19 0 -27 16 -20 40
7 22 41 27 48 8z m1579 -13 c0 -5 -5 -11 -11 -13 -6 -2 -11 4 -11 13 0 9 5 15
11 13 6 -2 11 -8 11 -13z m-2982 -25 c0 -5 -5 -10 -11 -10 -5 0 -7 5 -4 10 3
6 8 10 11 10 2 0 4 -4 4 -10z m1348 -32 c-2 -25 -8 -34 -24 -36 -13 -2 -24 4
-28 13 -9 24 11 55 35 55 17 0 20 -5 17 -32z m-881 -20 c-3 -8 -6 -5 -6 6 -1
11 2 17 5 13 3 -3 4 -12 1 -19z m602 3 c7 -13 6 -24 -4 -37 -13 -18 -15 -18
-30 -3 -14 13 -15 21 -6 38 14 26 27 27 40 2z m-2375 -160 c9 -14 -4 -41 -19
-41 -21 0 -28 19 -15 35 14 17 26 19 34 6z m3446 -1 c0 -5 -4 -10 -10 -10 -5
0 -10 5 -10 10 0 6 5 10 10 10 6 0 10 -4 10 -10z m-1180 -40 c0 -5 -7 -10 -16
-10 -8 0 -12 5 -9 10 3 6 10 10 16 10 5 0 9 -4 9 -10z m-377 -167 c-3 -7 -9
-10 -14 -7 -11 6 -12 38 -2 48 9 9 22 -25 16 -41z m917 32 c18 -22 3 -55 -26
-55 -20 0 -24 5 -24 28 0 43 25 57 50 27z m-1660 -95 c0 -11 -7 -20 -15 -20
-8 0 -15 9 -15 20 0 11 7 20 15 20 8 0 15 -9 15 -20z m1287 -572 c-3 -8 -6 -5
-6 6 -1 11 2 17 5 13 3 -3 4 -12 1 -19z m-832 -138 c-3 -5 -10 -10 -16 -10 -5
0 -9 5 -9 10 0 6 7 10 16 10 8 0 12 -4 9 -10z m3953 -36 c17 -64 112 -159 176
-176 25 -7 46 -15 46 -18 0 -3 -21 -12 -47 -20 -63 -18 -156 -108 -174 -168
-7 -23 -15 -42 -19 -42 -4 0 -12 19 -19 42 -18 60 -114 154 -175 170 -25 7
-46 15 -46 18 0 3 21 12 48 20 66 19 157 110 174 174 7 25 15 46 18 46 3 0 11
-21 18 -46z m-4088 -183 c0 -37 -24 -59 -45 -41 -18 15 -11 48 12 67 22 17 33
7 33 -26z"/>
<path d="M6200 8951 c0 -12 5 -21 10 -21 6 0 10 6 10 14 0 8 -4 18 -10 21 -5
3 -10 -3 -10 -14z"/>
<path d="M6627 8633 c-12 -11 -8 -23 8 -23 8 0 15 7 15 15 0 16 -12 20 -23 8z"/>
<path d="M6750 8200 c0 -5 5 -10 10 -10 6 0 10 5 10 10 0 6 -4 10 -10 10 -5 0
-10 -4 -10 -10z"/>
<path d="M6062 8199 c2 -6 8 -10 13 -10 5 0 11 4 13 10 2 6 -4 11 -13 11 -9 0
-15 -5 -13 -11z"/>
<path d="M5514 8059 c-3 -6 -2 -15 2 -19 12 -12 38 5 30 19 -9 14 -23 14 -32
0z"/>
<path d="M6325 7990 c-4 -6 -3 -16 3 -22 6 -6 12 -6 17 2 4 6 3 16 -3 22 -6 6
-12 6 -17 -2z"/>
<path d="M5150 7940 c0 -11 6 -20 14 -20 21 0 31 21 15 31 -22 14 -29 11 -29
-11z"/>
<path d="M4104 6775 c-15 -13 -26 -26 -24 -28 3 -3 19 8 35 24 37 35 29 38
-11 4z"/>
<path d="M6770 6355 c0 -8 7 -15 15 -15 8 0 15 7 15 15 0 8 -7 15 -15 15 -8 0
-15 -7 -15 -15z"/>
<path d="M6730 5490 c0 -16 7 -20 30 -20 23 0 30 4 30 20 0 16 -7 20 -30 20
-23 0 -30 -4 -30 -20z"/>
<path d="M6716 5358 c-12 -61 -10 -63 40 -60 35 3 44 7 40 19 -3 8 -6 19 -6
24 0 5 -14 9 -32 9 -29 0 -30 1 -13 13 17 13 17 14 -3 19 -16 5 -21 0 -26 -24z"/>
<path d="M6770 5370 c0 -5 5 -10 10 -10 6 0 10 5 10 10 0 6 -4 10 -10 10 -5 0
-10 -4 -10 -10z"/>
<path d="M6810 5329 c0 -27 2 -29 40 -29 37 0 40 2 40 28 0 25 -3 28 -40 29
-38 2 -40 0 -40 -28z"/>
<path d="M4880 7410 c0 -11 7 -20 15 -20 8 0 15 9 15 20 0 11 -7 20 -15 20 -8
0 -15 -9 -15 -20z"/>
<path d="M6130 7140 c0 -5 5 -10 11 -10 5 0 7 5 4 10 -3 6 -8 10 -11 10 -2 0
-4 -4 -4 -10z"/>
<path d="M5741 6043 c3 -35 -1 -43 -26 -43 -28 0 -29 -3 -15 -31 13 -23 30
-25 30 -4 0 9 7 18 15 21 16 6 18 74 3 74 -5 0 -8 -8 -7 -17z"/>
<path d="M5778 6025 c-4 -34 -3 -35 29 -35 31 0 33 2 33 35 0 32 -3 35 -29 35
-25 0 -29 -4 -33 -35z"/>
<path d="M6087 5594 c-3 -3 0 -16 6 -28 7 -11 12 -22 13 -23 2 -8 54 24 54 33
0 17 -59 31 -73 18z"/>
<path d="M5963 5494 c-7 -3 -9 -12 -6 -19 4 -12 7 -12 19 0 23 22 17 31 -13
19z"/>
<path d="M6240 5345 c0 -8 4 -15 10 -15 5 0 7 7 4 15 -4 8 -8 15 -10 15 -2 0
-4 -7 -4 -15z"/>
<path d="M6108 5303 c7 -3 16 -2 19 1 4 3 -2 6 -13 5 -11 0 -14 -3 -6 -6z"/>
<path d="M6120 6010 c0 -13 7 -20 19 -20 14 0 19 6 18 20 -1 12 -8 20 -19 20
-11 0 -18 -7 -18 -20z"/>
<path d="M8450 5970 c0 -5 5 -10 10 -10 6 0 10 5 10 10 0 6 -4 10 -10 10 -5 0
-10 -4 -10 -10z"/>
<path d="M7072 5700 c-10 -17 -10 -20 3 -20 8 0 15 9 15 20 0 11 -1 20 -3 20
-1 0 -8 -9 -15 -20z"/>
<path d="M6237 5643 c-12 -12 -7 -22 8 -17 8 4 15 10 15 15 0 11 -14 12 -23 2z"/>
<path d="M7325 5549 c-4 -6 -3 -15 3 -21 6 -6 11 -4 15 6 7 18 -9 31 -18 15z"/>
<path d="M7871 5154 c0 -11 3 -14 6 -6 3 7 2 16 -1 19 -3 4 -6 -2 -5 -13z"/>
<path d="M6845 4970 c3 -5 8 -10 11 -10 2 0 4 5 4 10 0 6 -5 10 -11 10 -5 0
-7 -4 -4 -10z"/>
<path d="M8322 4529 c2 -6 8 -10 13 -10 5 0 11 4 13 10 2 6 -4 11 -13 11 -9 0
-15 -5 -13 -11z"/>
<path d="M6341 3630 c-11 -25 -38 -88 -60 -140 l-39 -95 115 -3 c64 -1 118 -1
120 2 4 4 -76 206 -101 254 l-14 27 -21 -45z"/>
<path d="M8105 3680 c-4 -6 -3 -16 3 -22 6 -6 12 -6 17 2 4 6 3 16 -3 22 -6 6
-12 6 -17 -2z"/>
<path d="M4775 3530 c-3 -5 -1 -10 4 -10 6 0 11 5 11 10 0 6 -2 10 -4 10 -3 0
-8 -4 -11 -10z"/>
<path d="M6764 1946 c-8 -22 3 -33 18 -18 9 9 9 15 0 24 -9 9 -13 7 -18 -6z"/>
</g>
</svg>
