<?xml version="1.0" encoding="UTF-8"?>
<svg version="1.1" xmlns="http://www.w3.org/2000/svg" width="1024" height="1024">
<path d="M0 0 C-3.96 1.32 -7.92 2.64 -12 4 C-8.25212088 3.49547781 -4.67363066 2.91840767 -1 2 C-0.01 2.66 0.98 3.32 2 4 C0.68 4.33 -0.64 4.66 -2 5 C-1.67 5.99 -1.34 6.98 -1 8 C-1.96679688 8.23074219 -2.93359375 8.46148437 -3.9296875 8.69921875 C-11.87845982 10.69034687 -18.89753815 12.92778011 -26 17 C-27.17046875 17.66902344 -28.3409375 18.33804687 -29.546875 19.02734375 C-31.97089639 20.41788714 -34.38936303 21.81818238 -36.80078125 23.23046875 C-39.50224207 24.72468334 -42.10678569 25.94150696 -45 27 C-45 27.66 -45 28.32 -45 29 C-46.32 29.33 -47.64 29.66 -49 30 C-49.33 30.99 -49.66 31.98 -50 33 C-52.89407235 34.95545429 -55.86973936 36.43486968 -59 38 C-59.66 39.32 -60.32 40.64 -61 42 C-62.93874055 43.7415805 -64.88206521 45.47877117 -66.86328125 47.171875 C-93.8210029 70.23625111 -109.52585619 108.13442932 -112.7890625 143.03466797 C-115.18223306 176.67754945 -109.80456987 209.96540909 -91.15234375 238.6171875 C-89.48967184 242.05525484 -90.75498773 244.28129733 -91.9375 247.75 C-94 250 -94 250 -98.875 250.5625 C-103.51619177 250.56959662 -105.7001486 249.23588013 -109 246 C-118.24752641 231.97181623 -125.03832377 214.52615339 -128 198 C-128.27585937 196.76636719 -128.55171875 195.53273438 -128.8359375 194.26171875 C-137.33485052 152.35194125 -127.47914963 109.33659611 -106 73 C-103.93158475 69.95673164 -101.79969215 66.99803141 -99.56640625 64.07421875 C-97.96914407 62.09006931 -97.96914407 62.09006931 -97 60 C-96.34 60 -95.68 60 -95 60 C-94.34 58.68 -93.68 57.36 -93 56 C-90.87426342 53.54568855 -88.73026852 51.16771518 -86.5 48.8125 C-85.86416992 48.13977051 -85.22833984 47.46704102 -84.57324219 46.77392578 C-67.62910772 28.99499945 -26.87068021 -6.71767005 0 0 Z M-27 9 C-22.70600835 10.07349791 -21.80504787 9.79682816 -18 8 C-18 7.34 -18 6.68 -18 6 C-21.69418201 6 -23.77836178 7.28179295 -27 9 Z " fill="#000000" transform="translate(475,306)"/>
<path d="M0 0 C42.96978737 -0.80884306 78.31101614 14.39621618 110.66796875 42.15625 C113.06736972 44.7863626 115.37714124 47.43532642 117.66796875 50.15625 C118.44398438 51.04441406 119.22 51.93257813 120.01953125 52.84765625 C146.87492625 84.06809223 159.79568274 124.20514354 157.66796875 165.15625 C154.99327088 197.6928351 144.28255297 229.40940415 123.66796875 255.15625 C123.00796875 255.15625 122.34796875 255.15625 121.66796875 255.15625 C121.00796875 256.47625 120.34796875 257.79625 119.66796875 259.15625 C116.57154973 263.08953902 113.2570188 266.66974423 109.66796875 270.15625 C110.65796875 269.82625 111.64796875 269.49625 112.66796875 269.15625 C112.35546875 272.53125 112.35546875 272.53125 111.66796875 276.15625 C108.66796875 278.15625 108.66796875 278.15625 104.66796875 280.15625 C104.00796875 281.47625 103.34796875 282.79625 102.66796875 284.15625 C97.85232376 288.6286209 92.38146208 291.95669373 86.66796875 295.15625 C85.18296875 296.64125 85.18296875 296.64125 83.66796875 298.15625 C83.00796875 298.48625 82.34796875 298.81625 81.66796875 299.15625 C82.65796875 299.48625 83.64796875 299.81625 84.66796875 300.15625 C50.21339072 322.08189057 5.27105708 329.3022655 -34.515625 320.8984375 C-51.03913991 317.20452059 -65.51137473 312.29249104 -79.94921875 303.25 C-82.7034809 301.54528347 -85.44184972 300.04373938 -88.33203125 298.59375 C-93.22970698 295.60922885 -95.9062244 292.74828896 -99.33203125 288.15625 C-99.33203125 286.83625 -99.33203125 285.51625 -99.33203125 284.15625 C-98.67203125 284.15625 -98.01203125 284.15625 -97.33203125 284.15625 C-97.82703125 282.67125 -97.82703125 282.67125 -98.33203125 281.15625 C-91.07991704 277.09998273 -91.07991704 277.09998273 -87.83984375 277.34375 C-85.03566572 278.25226874 -83.23751052 279.43613666 -80.89453125 281.21875 C-74.66782936 285.73798073 -68.07035414 289.45800767 -61.33203125 293.15625 C-60.5121875 293.6203125 -59.69234375 294.084375 -58.84765625 294.5625 C-27.39069216 311.48417724 11.86610494 312.89195792 45.66796875 303.15625 C62.15915999 298.18150873 77.11656258 290.81754585 90.66796875 280.15625 C91.90740234 279.25519531 91.90740234 279.25519531 93.171875 278.3359375 C99.44881983 273.64050772 104.28590007 268.18316832 109.22265625 262.109375 C111.26856824 259.63859311 113.35456138 257.37281707 115.66796875 255.15625 C115.33796875 254.49625 115.00796875 253.83625 114.66796875 253.15625 C115.98796875 252.49625 117.30796875 251.83625 118.66796875 251.15625 C120.55999205 248.71254807 120.55999205 248.71254807 122.23046875 245.84375 C122.80925781 244.89886719 123.38804687 243.95398438 123.984375 242.98046875 C124.53996094 242.04847656 125.09554687 241.11648438 125.66796875 240.15625 C127.43277342 237.21490888 129.20152434 234.2766043 130.98046875 231.34375 C138.29048252 217.99312606 142.05719689 202.85554964 145.66796875 188.15625 C146.04824219 186.63902344 146.42851563 185.12179687 146.8203125 183.55859375 C148.24186101 176.14966333 147.99651855 168.60826628 147.98046875 161.09375 C147.99658203 159.61197266 148.01269531 158.13019531 148.02929688 156.60351562 C148.03817481 136.22864946 144.0678259 114.38799711 134.66796875 96.15625 C134.25160156 95.26679688 133.83523438 94.37734375 133.40625 93.4609375 C126.8161031 79.60085778 119.17026626 66.93217577 108.39453125 55.953125 C105.66796875 53.15625 105.66796875 53.15625 103.16796875 50.09375 C100.65580539 47.14195805 98.06697546 44.82212313 95.04296875 42.40625 C93.63144531 41.26929688 93.63144531 41.26929688 92.19140625 40.109375 C90.40095134 38.72357399 88.55181831 37.41214971 86.66796875 36.15625 C86.66796875 35.49625 86.66796875 34.83625 86.66796875 34.15625 C86.02859375 33.93453125 85.38921875 33.7128125 84.73046875 33.484375 C80.49979727 31.64964502 76.62378658 29.25915134 72.66796875 26.90625 C38.58278446 7.03236251 -0.68141551 0.81427219 -39.26953125 10.34375 C-51.36455193 13.81556373 -62.42765226 18.95203437 -73.33203125 25.15625 C-73.99203125 25.15625 -74.65203125 25.15625 -75.33203125 25.15625 C-75.33203125 24.49625 -75.33203125 23.83625 -75.33203125 23.15625 C-57.32492234 11.43525911 -36.52420397 4.21756106 -15.33203125 1.15625 C-14.35105469 1.00800781 -13.37007813 0.85976563 -12.359375 0.70703125 C-8.24650125 0.21755478 -4.13790949 0.14924831 0 0 Z M107.66796875 271.15625 C103.21296875 274.62125 103.21296875 274.62125 98.66796875 278.15625 C99.65796875 278.65125 99.65796875 278.65125 100.66796875 279.15625 C103.94726706 277.47455856 106.03232419 275.79189456 108.66796875 273.15625 C108.33796875 272.49625 108.00796875 271.83625 107.66796875 271.15625 Z M87.66796875 286.15625 C87.33796875 286.81625 87.00796875 287.47625 86.66796875 288.15625 C87.65796875 287.82625 88.64796875 287.49625 89.66796875 287.15625 C89.00796875 286.82625 88.34796875 286.49625 87.66796875 286.15625 Z M82.66796875 289.15625 C82.33796875 289.81625 82.00796875 290.47625 81.66796875 291.15625 C82.65796875 290.82625 83.64796875 290.49625 84.66796875 290.15625 C84.00796875 289.82625 83.34796875 289.49625 82.66796875 289.15625 Z " fill="#000000" transform="translate(507.33203125,309.84375)"/>
<path d="M0 0 C6.93 0 13.86 0 21 0 C21 0.33 21 0.66 21 1 C22.65 1.33 24.3 1.66 26 2 C25.67 2.99 25.34 3.98 25 5 C24.34 5 23.68 5 23 5 C23 5.66 23 6.32 23 7 C23.99 6.67 24.98 6.34 26 6 C28 8 28 8 28 10 C30.475 9.01 30.475 9.01 33 8 C33 7.01 33 6.02 33 5 C31.02 3.515 31.02 3.515 29 2 C37.00996896 1.62256691 44.48473039 1.92621243 52 5 C52.33 5.66 52.66 6.32 53 7 C51.68 8.32 50.36 9.64 49 11 C49.99 11 50.98 11 52 11 C51 15 51 15 50 17 C50.66 17 51.32 17 52 17 C52 17.66 52 18.32 52 19 C50.35 19 48.7 19 47 19 C47 21.64 47 24.28 47 27 C47.99 27 48.98 27 50 27 C50.4021875 28.3303125 50.4021875 28.3303125 50.8125 29.6875 C52.4773799 34.33163867 53.85564477 37.23709652 58 40 C58 40.99 58 41.98 58 43 C59.32 43.33 60.64 43.66 62 44 C62.99 44.99 63.98 45.98 65 47 C66.32 47.33 67.64 47.66 69 48 C69.33 48.99 69.66 49.98 70 51 C69.01 51.495 69.01 51.495 68 52 C68.99 53.98 68.99 53.98 70 56 C70.37890625 58.62109375 70.37890625 58.62109375 70.5625 61.4375 C70.80825522 65.04358175 71.22425427 68.46747194 72 72 C72.99 71.67 73.98 71.34 75 71 C75.33 72.32 75.66 73.64 76 75 C76.66 75 77.32 75 78 75 C78.09764874 79.78478822 77.77112541 84.27685687 77 89 C78.65 89.66 80.3 90.32 82 91 C81.649375 90.2575 81.29875 89.515 80.9375 88.75 C80 86 80 86 81 82 C82.68997323 83.64302953 84.35216394 85.31471312 86 87 C86.71285156 87.62390625 87.42570313 88.2478125 88.16015625 88.890625 C91.10277033 93.86370527 90.37738045 98.9079245 90.1875 104.5625 C90.13514631 106.81370883 90.08680114 109.06501539 90.04296875 111.31640625 C90.01227295 112.31099854 89.98157715 113.30559082 89.94995117 114.33032227 C89.90494619 117.25532639 89.90494619 117.25532639 91 121 C94.465 120.505 94.465 120.505 98 120 C98.33 120.99 98.66 121.98 99 123 C95.12315913 124.19287411 92.08378077 125 88 125 C88.66 126.32 89.32 127.64 90 129 C90.9075 128.319375 91.815 127.63875 92.75 126.9375 C96 125 96 125 100 126 C101.6328125 128.984375 101.6328125 128.984375 103.125 132.75 C103.62257813 133.98234375 104.12015625 135.2146875 104.6328125 136.484375 C105.44953293 138.58451326 106.26602166 140.68474169 107.08203125 142.78515625 C108.15017269 145.36233156 109.5288959 147.63344123 111 150 C111.33 150.66 111.66 151.32 112 152 C112.66 151.01 113.32 150.02 114 149 C114.66 149.33 115.32 149.66 116 150 C116.7351762 152.98395047 117.39729952 155.98649762 118 159 C118.33 160.32 118.66 161.64 119 163 C118.01 163.33 117.02 163.66 116 164 C116.66 165.32 117.32 166.64 118 168 C118 168.99 118 169.98 118 171 C118.66 171 119.32 171 120 171 C122 175 122 175 122 178 C122.99 178.33 123.98 178.66 125 179 C124.79375 179.886875 124.5875 180.77375 124.375 181.6875 C123.97449761 185.2252711 124.43316484 186.86632967 126 190 C126.66 190 127.32 190 128 190 C128 190.66 128 191.32 128 192 C128.66 192 129.32 192 130 192 C130.33 189.69 130.66 187.38 131 185 C133 187 133 187 133.25 191 C133 195 133 195 131 197 C130.67 197 130.34 197 130 197 C129.67 197.99 129.34 198.98 129 200 C129.66 200.33 130.32 200.66 131 201 C131 202.98 131 204.96 131 207 C131.74765625 206.96519531 132.4953125 206.93039062 133.265625 206.89453125 C134.25046875 206.86746094 135.2353125 206.84039063 136.25 206.8125 C137.22453125 206.77769531 138.1990625 206.74289062 139.203125 206.70703125 C142 207 142 207 146 210 C146 210.66 146 211.32 146 212 C141.05 212 136.1 212 131 212 C128.525 207.05 128.525 207.05 126 202 C126.66 203.60875 127.32 205.2175 128 206.875 C130 211.75 130 211.75 130 214 C139.24 214 148.48 214 158 214 C158.33 214.99 158.66 215.98 159 217 C158.01 217 157.02 217 156 217 C155.67 217.66 155.34 218.32 155 219 C150.29187548 219.1164269 145.58412276 219.18733107 140.875 219.25 C139.54210937 219.28351563 138.20921875 219.31703125 136.8359375 219.3515625 C134.90234375 219.37089844 134.90234375 219.37089844 132.9296875 219.390625 C131.74616699 219.41157227 130.56264648 219.43251953 129.34326172 219.45410156 C124.33791196 218.77424538 121.28573769 216.36136932 117.875 212.75 C114.69364158 208.08400765 112.43565183 202.92586839 110.03515625 197.82421875 C109.38417969 196.45910156 108.73320313 195.09398437 108.0625 193.6875 C107.41410156 192.30949219 106.76570312 190.93148437 106.09765625 189.51171875 C103.87579732 185.79207038 102.81952141 184.81065932 99 183 C96.0244701 182.53943282 96.0244701 182.53943282 92.80444336 182.58349609 C91.57644516 182.56692963 90.34844696 182.55036316 89.08323669 182.53329468 C87.76541702 182.53004181 86.44759735 182.52678894 85.08984375 182.5234375 C83.7302504 182.50785797 82.37065704 182.49227844 80.96986389 182.47622681 C76.62574844 182.4286912 72.28179357 182.40094038 67.9375 182.375 C63.58974943 182.33850665 59.24208974 182.29787612 54.89442444 182.25234985 C52.18894252 182.22513631 49.48339416 182.20377942 46.77781677 182.18881226 C45.55297073 182.17855011 44.32812469 182.16828796 43.06616211 182.15771484 C41.44997231 182.14797134 41.44997231 182.14797134 39.8011322 182.13803101 C37 182 37 182 33 181 C31.8988261 176.50353992 31.7342926 174.54057712 33.8125 170.3125 C34.534375 169.219375 35.25625 168.12625 36 167 C36.66 165.68 37.32 164.36 38 163 C38.66 163 39.32 163 40 163 C39.236875 162.29875 38.47375 161.5975 37.6875 160.875 C35.03409522 158.03647396 33.55999257 155.53050949 32 152 C30.68 152.33 29.36 152.66 28 153 C28 153.66 28 154.32 28 155 C28.66 155 29.32 155 30 155 C30 155.66 30 156.32 30 157 C27.75 157.75 27.75 157.75 25 158 C24.195625 157.0409375 24.195625 157.0409375 23.375 156.0625 C19.93573344 153.07576851 16.97338475 153.6479046 12.55859375 153.76171875 C9.8815243 153.91343896 9.8815243 153.91343896 7 155 C6.34 154.67 5.68 154.34 5 154 C4.71423096 154.72928711 4.42846191 155.45857422 4.1340332 156.20996094 C-1.29585016 169.56899369 -8.13956747 182.47674114 -14.6875 195.3125 C-15.19708252 196.33053711 -15.70666504 197.34857422 -16.23168945 198.39746094 C-19.78735236 205.2897847 -23.98387961 211.10142006 -29 217 C-29.86625 218.1034375 -30.7325 219.206875 -31.625 220.34375 C-43.28576764 233.38539802 -60.95377053 239.81134247 -78 241 C-86.99916768 241.30226796 -95.99951008 241.19540142 -105 241 C-105.33 240.34 -105.66 239.68 -106 239 C-107.32 238.34 -108.64 237.68 -110 237 C-108.78376953 236.38125 -108.78376953 236.38125 -107.54296875 235.75 C-88.0447672 225.58097288 -76.24604899 212.5258694 -66 193 C-65.20190416 191.48693631 -64.40372251 189.97391788 -63.60546875 188.4609375 C-62.32789743 186.03459027 -61.05308221 183.60694023 -59.78515625 181.17553711 C-57.07889318 175.99596958 -54.27004585 170.89004169 -51.375 165.8125 C-47.7444635 159.41463148 -44.40925812 152.91669007 -41.15625 146.3203125 C-38.70562725 141.41018793 -36.17649254 136.54575461 -33.625 131.6875 C-32.92661011 130.3574292 -32.92661011 130.3574292 -32.21411133 129.00048828 C-29.93390677 124.66380626 -27.64679245 120.33081594 -25.35546875 116 C-24.50759452 114.39594853 -23.65993466 112.79178374 -22.8125 111.1875 C-22.40032227 110.40761719 -21.98814453 109.62773437 -21.56347656 108.82421875 C-18.92581197 103.81412958 -16.37992791 98.76571642 -13.875 93.6875 C-10.80724368 87.49654598 -7.46884632 81.5253849 -3.99609375 75.5546875 C-1.88788766 71.80034788 0.03614043 67.98796024 1.9375 64.125 C4.76280838 58.42432857 7.65307159 52.77908746 10.6875 47.1875 C11.39261719 45.88167969 12.09773438 44.57585937 12.82421875 43.23046875 C15.04567494 39.9321846 16.58147948 38.84420186 20 37 C22.31238936 33.43397811 22.31238936 33.43397811 24 30 C19.45607544 22.18809531 15.10864618 16.66511261 7.41796875 11.81640625 C4.75546469 9.81630223 3.51606262 7.93642694 2 5 C2.66 4.34 3.32 3.68 4 3 C2.68 2.01 1.36 1.02 0 0 Z M21 3 C21 3.66 21 4.32 21 5 C21.66 5 22.32 5 23 5 C23 4.34 23 3.68 23 3 C22.34 3 21.68 3 21 3 Z M20 7 C20 7.66 20 8.32 20 9 C20.99 9 21.98 9 23 9 C23 8.34 23 7.68 23 7 C22.01 7 21.02 7 20 7 Z M23 10 C24.32 11.32 25.64 12.64 27 14 C27 13.01 27 12.02 27 11 C25.68 10.67 24.36 10.34 23 10 Z M29 15 C29 15.66 29 16.32 29 17 C29.66 16.67 30.32 16.34 31 16 C30.34 15.67 29.68 15.34 29 15 Z M41 20 C42 22 42 22 42 22 Z M42 22 C42 26.40830318 43.03552922 28.14963727 45 32 C45.6875 34.875 45.6875 34.875 46 37 C46.33 36.34 46.66 35.68 47 35 C47.66 35 48.32 35 49 35 C48.731875 34.34 48.46375 33.68 48.1875 33 C46.74313926 29.35108866 45.37108041 25.67698838 44 22 C43.34 22 42.68 22 42 22 Z M39 29 C39.66 30.32 40.32 31.64 41 33 C41.33 32.34 41.66 31.68 42 31 C41.67 30.34 41.34 29.68 41 29 C40.34 29 39.68 29 39 29 Z M26 32 C25.67 33.32 25.34 34.64 25 36 C25.66 36 26.32 36 27 36 C27.06960938 36.65226562 27.13921875 37.30453125 27.2109375 37.9765625 C28.30613233 42.17300211 30.46724369 45.65414464 32.625 49.375 C33.52105368 50.99785824 34.41556573 52.62156858 35.30859375 54.24609375 C36.95610417 57.2139873 38.66223692 60.00508993 40.53515625 62.84765625 C42.84276142 66.69645689 44.26128143 69.56323848 45 74 C43.34398013 80.05976696 40.64856804 85.1136637 37.46533203 90.49902344 C35.47561365 93.89500396 33.64941873 97.36815287 31.82397461 100.85449219 C30.95943462 102.50035441 30.08185739 104.13945227 29.18969727 105.77050781 C27.18133486 109.47640029 25.4713667 112.7745342 25 117 C32.7905843 118.35488423 40.5504661 119.11840954 48 116 C48.94875 115.62875 49.8975 115.2575 50.875 114.875 C51.57625 114.58625 52.2775 114.2975 53 114 C52.67 115.32 52.34 116.64 52 118 C53.9557939 119.8152399 55.91471093 121.62711539 57.875 123.4375 C58.96554687 124.44683594 60.05609375 125.45617187 61.1796875 126.49609375 C63.71647995 128.96631999 63.71647995 128.96631999 66 130 C63.86906094 125.73812187 61.41680563 123.26824886 58 120 C58.495 118.515 58.495 118.515 59 117 C55.47945795 113.40674617 55.47945795 113.40674617 51 112 C51 110.68 51 109.36 51 108 C51.99 107.505 51.99 107.505 53 107 C53 107.99 53 108.98 53 110 C53.99 110 54.98 110 56 110 C56.66 111.32 57.32 112.64 58 114 C60.30185208 116.38710586 62.61332116 118.70395454 65 121 C65.53367187 121.72703125 66.06734375 122.4540625 66.6171875 123.203125 C70.33655626 126.00789488 74.29574509 125.42106444 78.75 125.25 C79.63816406 125.23195313 80.52632812 125.21390625 81.44140625 125.1953125 C83.62806775 125.14828752 85.81417281 125.07654648 88 125 C88 124.67 88 124.34 88 124 C86.74703125 123.97421875 85.4940625 123.9484375 84.203125 123.921875 C82.56859375 123.86515625 80.9340625 123.8084375 79.25 123.75 C77.62578125 123.70359375 76.0015625 123.6571875 74.328125 123.609375 C70 123 70 123 67.40625 121.28125 C65.63189168 118.40284651 65.8229703 117.07340505 66.25 113.75 C66.5478553 104.98454411 62.11787857 98.47869011 58 91 C56.69687923 88.40154603 55.40511394 85.79736496 54.125 83.1875 C50.75281607 76.43652001 47.25815715 69.75740082 43.72241211 63.09130859 C40.96044454 57.87005484 38.29955753 52.61040199 35.6875 47.3125 C33.0479561 41.99600976 30.36394225 36.89300691 27 32 C26.67 32 26.34 32 26 32 Z M42 34 C43.25805377 38.50802601 44.90407165 41.4912812 48 45 C47.46939601 40.48986609 45.69113883 37.61621781 43 34 C42.67 34 42.34 34 42 34 Z M49 36 C49 37.65 49 39.3 49 41 C49.33 41 49.66 41 50 41 C50 39.35 50 37.7 50 36 C49.67 36 49.34 36 49 36 Z M48 45 C48.66 46.32 49.32 47.64 50 49 C49.67 47.68 49.34 46.36 49 45 C48.67 45 48.34 45 48 45 Z M50 49 C50.91052075 52.85938975 50.91052075 52.85938975 52 56 C52.66 56 53.32 56 54 56 C52.92598892 53.08482708 52.22189824 51.22189824 50 49 Z M62 51 C61.67 52.32 61.34 53.64 61 55 C61.99 55.33 62.98 55.66 64 56 C64 54.35 64 52.7 64 51 C63.34 51 62.68 51 62 51 Z M54 57 C55 59 55 59 55 59 Z M55 59 C56 61 56 61 56 61 Z M60 69 C60.62841973 72.9714169 60.62841973 72.9714169 63 75 C62.37158027 71.0285831 62.37158027 71.0285831 60 69 Z M63 75 C63.66 76.98 64.32 78.96 65 81 C66.33333333 78 66.33333333 78 65 75 C64.34 75 63.68 75 63 75 Z M68 85 C68.33 86.32 68.66 87.64 69 89 C69.33 88.01 69.66 87.02 70 86 C69.34 85.67 68.68 85.34 68 85 Z M70 89 C71 91 71 91 71 91 Z M71 91 C71.66 92.98 72.32 94.96 73 97 C74.33333333 94 74.33333333 94 73 91 C72.34 91 71.68 91 71 91 Z M76 101 C77 103 77 103 77 103 Z M78 105 C78.33 106.65 78.66 108.3 79 110 C79.66 109.67 80.32 109.34 81 109 C80.01 107.68 79.02 106.36 78 105 Z M72 114 C72.66 114.66 73.32 115.32 74 116 C74 115.34 74 114.68 74 114 C73.34 114 72.68 114 72 114 Z M82 114 C83.05875074 117.40312738 84.00902154 120.01353231 86 123 C86.99 122.67 87.98 122.34 89 122 C88.67 120.68 88.34 119.36 88 118 C87.34 118 86.68 118 86 118 C85.67 117.01 85.34 116.02 85 115 C84.01 114.67 83.02 114.34 82 114 Z M74 116 C74 116.33 74 116.66 74 117 C76.64 117 79.28 117 82 117 C82 116.67 82 116.34 82 116 C79.36 116 76.72 116 74 116 Z M23 119 C22.34 120.98 21.68 122.96 21 125 C29.91 125 38.82 125 48 125 C47.01 124.34 46.02 123.68 45 123 C45.66 122.01 46.32 121.02 47 120 C42.10715739 118.71347617 37.20419479 118.88886687 32.1875 118.9375 C30.86202148 118.94426758 30.86202148 118.94426758 29.50976562 118.95117188 C27.33981441 118.96290134 25.16989828 118.98083505 23 119 Z M52 122 C51.34 123.32 50.68 124.64 50 126 C50.99 126 51.98 126 53 126 C52.67 124.68 52.34 123.36 52 122 Z M54 127 C53.67 127.99 53.34 128.98 53 130 C50.03 130 47.06 130 44 130 C44 130.33 44 130.66 44 131 C46.97 131.33 49.94 131.66 53 132 C52.34 133.32 51.68 134.64 51 136 C50.01 136.33 49.02 136.66 48 137 C48 137.66 48 138.32 48 139 C70.77 138.505 70.77 138.505 94 138 C94 137.67 94 137.34 94 137 C83.11 136.67 72.22 136.34 61 136 C61.33 135.34 61.66 134.68 62 134 C61.34 133.67 60.68 133.34 60 133 C59.67 131.68 59.34 130.36 59 129 C58.34 128.34 57.68 127.68 57 127 C56.01 127 55.02 127 54 127 Z M66 130 C66 130.33 66 130.66 66 131 C73.26 131 80.52 131 88 131 C88 130.67 88 130.34 88 130 C80.74 130 73.48 130 66 130 Z M97 132 C98 134 98 134 98 134 Z M92 133 C92 133.66 92 134.32 92 135 C92.66 134.67 93.32 134.34 94 134 C93.34 133.67 92.68 133.34 92 133 Z M42 135 C42 136.32 42 137.64 42 139 C43.65 139 45.3 139 47 139 C46.34 137.68 45.68 136.36 45 135 C44.01 135 43.02 135 42 135 Z M36 136 C36 139 36 139 36 139 Z M31 136 C33.58943961 141.17887923 37.63186589 145.26250946 42 149 C42.66 149 43.32 149 44 149 C44 148.34 44 147.68 44 147 C44.99 147 45.98 147 47 147 C47.33 147.99 47.66 148.98 48 150 C48.66 150 49.32 150 50 150 C50 149.01 50 148.02 50 147 C50.99 146.34 51.98 145.68 53 145 C53 144.01 53 143.02 53 142 C48.80605514 139.90302757 43.33770686 140.55409771 39 142 C38.236875 141.195625 37.47375 140.39125 36.6875 139.5625 C34.20569102 136.83200976 34.20569102 136.83200976 31 136 Z M94 140 C81.625 140.495 81.625 140.495 69 141 C69 141.33 69 141.66 69 142 C72.95795086 142.19625099 76.91636935 142.38051982 80.875 142.5625 C82.00292969 142.61857422 83.13085938 142.67464844 84.29296875 142.73242188 C85.36933594 142.78076172 86.44570313 142.82910156 87.5546875 142.87890625 C88.54968262 142.9260376 89.54467773 142.97316895 90.56982422 143.02172852 C93.0103794 143.17780982 93.0103794 143.17780982 95 142 C94.67 141.34 94.34 140.68 94 140 Z M28 143 C28.99 143.99 29.98 144.98 31 146 C30.67 145.01 30.34 144.02 30 143 C29.34 143 28.68 143 28 143 Z M33 145 C33 146.65 33 148.3 33 150 C36.41907959 153.7078734 36.41907959 153.7078734 41 155 C41 155.66 41 156.32 41 157 C41.66 157 42.32 157 43 157 C42.81584568 154.05908413 42.81584568 154.05908413 42 151 C38.59628479 148.9254644 38.59628479 148.9254644 37 149 C37 148.34 37 147.68 37 147 C36.34 147 35.68 147 35 147 C35 146.34 35 145.68 35 145 C34.34 145 33.68 145 33 145 Z M97 145 C98 147 98 147 98 147 Z M111 163 C111.33 163.66 111.66 164.32 112 165 C112.66 165 113.32 165 114 165 C114 164.34 114 163.68 114 163 C113.01 163 112.02 163 111 163 Z M110 171 C114 172 114 172 114 172 Z M106 172 C106.66 172.66 107.32 173.32 108 174 C103.38 174.33 98.76 174.66 94 175 C94 175.33 94 175.66 94 176 C99.61 176 105.22 176 111 176 C111 175.34 111 174.68 111 174 C111.99 173.67 112.98 173.34 114 173 C111.36 172.67 108.72 172.34 106 172 Z M114 177 C115 179 115 179 115 179 Z M121 179 C122 181 122 181 122 181 Z M116 180 C116.50195201 185.14500807 118.29148964 188.6314349 121 193 C121.33 192.34 121.66 191.68 122 191 C121.00409891 188.29620134 121.00409891 188.29620134 119.5625 185.375 C119.08941406 184.37210938 118.61632812 183.36921875 118.12890625 182.3359375 C117.75636719 181.56507813 117.38382813 180.79421875 117 180 C116.67 180 116.34 180 116 180 Z M119 180 C119 180.66 119 181.32 119 182 C119.66 181.67 120.32 181.34 121 181 C120.34 180.67 119.68 180.34 119 180 Z M122 194 C123 196 123 196 123 196 Z M124 197 C125 200 125 200 125 200 Z " fill="#000000" transform="translate(462,349)"/>
<path d="M0 0 C3.63 0.33 7.26 0.66 11 1 C10.99476318 2.65974854 10.98952637 4.31949707 10.98413086 6.02954102 C10.96600118 12.20010843 10.95453884 18.37067349 10.94506836 24.54125977 C10.94004637 27.20955807 10.93322754 29.87785363 10.92456055 32.54614258 C10.91240156 36.38623736 10.90675026 40.22629569 10.90234375 44.06640625 C10.89718246 45.25520889 10.89202118 46.44401154 10.88670349 47.6688385 C10.88632978 53.21342494 10.9952855 58.52447981 12 64 C15.3 64.33 18.6 64.66 22 65 C22.33 68.63 22.66 72.26 23 76 C16.2887852 79.09748375 10.28014673 79.9228355 3 79 C-1.46279226 76.84829659 -4.2358803 74.09499214 -7 70 C-7.88330921 66.46676315 -8.09979166 64.03331775 -8.03759766 60.45288086 C-8.01229477 58.78611549 -8.01229477 58.78611549 -7.98648071 57.0856781 C-7.9625827 55.89080276 -7.93868469 54.69592743 -7.9140625 53.46484375 C-7.89282318 52.23464005 -7.87158386 51.00443634 -7.84970093 49.73695374 C-7.80345463 47.13700666 -7.75452766 44.5371061 -7.703125 41.93725586 C-7.62524034 37.94980475 -7.55811151 33.96227418 -7.4921875 29.97460938 C-7.44595712 27.45050894 -7.39910328 24.92641984 -7.3515625 22.40234375 C-7.33171295 21.20544418 -7.3118634 20.00854462 -7.29141235 18.77537537 C-7.26823944 17.66735062 -7.24506653 16.55932587 -7.22119141 15.41772461 C-7.20263092 14.44161728 -7.18407043 13.46550995 -7.16494751 12.45982361 C-7 10 -7 10 -6 7 C-5.34 7 -4.68 7 -4 7 C-4 6.34 -4 5.68 -4 5 C-3.34 5 -2.68 5 -2 5 C-1.34 3.35 -0.68 1.7 0 0 Z " fill="#000000" transform="translate(375,647)"/>
<path d="M0 0 C1.79244141 0.01740234 1.79244141 0.01740234 3.62109375 0.03515625 C5.41740234 0.04869141 5.41740234 0.04869141 7.25 0.0625 C8.17683594 0.07410156 9.10367188 0.08570313 10.05859375 0.09765625 C16.97603019 14.85584858 23.79133729 29.64379982 30.28955078 44.59179688 C33.27744796 51.42826574 36.45058072 58.10812318 39.9140625 64.71875 C41.05859375 67.09765625 41.05859375 67.09765625 41.05859375 69.09765625 C39.61484375 69.40703125 38.17109375 69.71640625 36.68359375 70.03515625 C32.40279066 70.82739112 32.40279066 70.82739112 30.05859375 72.09765625 C25.9569054 72.48460798 23.74389924 72.51479872 20.18359375 70.34765625 C18.05859375 68.09765625 18.05859375 68.09765625 17.05859375 64.09765625 C16.39859375 64.09765625 15.73859375 64.09765625 15.05859375 64.09765625 C13.39192708 62.43098958 11.72526042 60.76432292 10.05859375 59.09765625 C5.59724055 57.61053852 1.03463338 57.72292913 -3.62890625 57.53515625 C-4.61697266 57.49197266 -5.60503906 57.44878906 -6.62304688 57.40429688 C-9.06233597 57.29824083 -11.50185279 57.19744651 -13.94140625 57.09765625 C-14.22371094 57.92910156 -14.50601562 58.76054688 -14.796875 59.6171875 C-18.31053023 68.30343782 -18.31053023 68.30343782 -23.09375 70.6328125 C-31.70562156 72.71554859 -31.70562156 72.71554859 -36.94140625 70.09765625 C-36.24139308 58.19743243 -30.3993611 47.84111258 -25.0546875 37.43359375 C-22.03683963 31.24170625 -19.51795534 24.88013291 -16.99609375 18.47265625 C-13.79198096 11.65021077 -9.43441528 6.27677905 -3.94140625 1.09765625 C-2.94140625 0.09765625 -2.94140625 0.09765625 0 0 Z M-1.94140625 28.09765625 C-5.16010499 32.22161401 -6.72570756 36.03224504 -7.94140625 41.09765625 C-6.33265625 41.11828125 -4.72390625 41.13890625 -3.06640625 41.16015625 C-1.70902344 41.17755859 -1.70902344 41.17755859 -0.32421875 41.1953125 C2.07545225 41.26014882 2.07545225 41.26014882 4.05859375 40.09765625 C3.61440965 34.76744706 3.34836183 32.48401369 0.05859375 28.09765625 C-0.60140625 28.09765625 -1.26140625 28.09765625 -1.94140625 28.09765625 Z " fill="#000000" transform="translate(328.94140625,653.90234375)"/>
<path d="M0 0 C1.47692798 4.43078394 -0.66806681 7.44149154 -2.5 11.5 C-3.32766659 13.3798371 -4.1544178 15.26007738 -4.98046875 17.140625 C-5.45145996 18.20603516 -5.92245117 19.27144531 -6.40771484 20.36914062 C-9.25499669 26.86174653 -12.02725421 33.38668621 -14.81152344 39.90649414 C-23.13695293 59.39815212 -23.13695293 59.39815212 -27 68 C-23.7 68 -20.4 68 -17 68 C-17 68.33 -17 68.66 -17 69 C-18.72291637 69.5612302 -20.45373739 70.09822933 -22.1875 70.625 C-23.15042969 70.92664063 -24.11335937 71.22828125 -25.10546875 71.5390625 C-28.43715828 72.06961495 -30.03295456 71.50793169 -33 70 C-33.21126861 65.62737996 -32.7297949 62.66973723 -30.9375 58.6875 C-30.25300781 57.12902344 -30.25300781 57.12902344 -29.5546875 55.5390625 C-29.04164063 54.37117187 -28.52859375 53.20328125 -28 52 C-26.84906729 49.18958292 -25.70349917 46.37696463 -24.5625 43.5625 C-21.97799289 37.26978705 -19.24121944 31.08203633 -16.33203125 24.93359375 C-15.08907708 22.19617856 -14.03131801 19.44733117 -13 16.625 C-10.3252555 9.77721014 -5.19774699 5.04487208 0 0 Z " fill="#000000" transform="translate(629,654)"/>
<path d="M0 0 C2.88092538 1.44046269 3.1551933 3.29348008 4.3828125 6.2421875 C5.04990234 7.84126953 5.04990234 7.84126953 5.73046875 9.47265625 C6.19066406 10.59542969 6.65085937 11.71820312 7.125 12.875 C7.59292969 13.99003906 8.06085937 15.10507812 8.54296875 16.25390625 C12 24.60923834 12 24.60923834 12 28 C7.05 28 2.1 28 -3 28 C-2.01 27.67 -1.02 27.34 0 27 C-0.44829514 25.01853549 -0.90892498 23.03985789 -1.375 21.0625 C-1.63023437 19.96035156 -1.88546875 18.85820313 -2.1484375 17.72265625 C-2.42945313 16.82417969 -2.71046875 15.92570313 -3 15 C-3.66 14.67 -4.32 14.34 -5 14 C-4.46804389 8.68043889 -2.50461988 4.686063 0 0 Z " fill="#000000" transform="translate(636,668)"/>
<path d="M0 0 C3.3 0.33 6.6 0.66 10 1 C10 2.98 10 4.96 10 7 C10.66 7 11.32 7 12 7 C12.66 5.68 13.32 4.36 14 3 C18.55705021 -0.98741894 23.25928694 -0.22962852 29 0 C27.02 0.99 27.02 0.99 25 2 C25.94875 2.144375 26.8975 2.28875 27.875 2.4375 C31 3 31 3 33 4 C33 4.99 33 5.98 33 7 C32.34 7.33 31.68 7.66 31 8 C31.66 8.9075 32.32 9.815 33 10.75 C35 14 35 14 35 18 C36.32 18 37.64 18 39 18 C39 23.28 39 28.56 39 34 C38.34 34 37.68 34 37 34 C37 39.61 37 45.22 37 51 C39.31 51 41.62 51 44 51 C44 51.66 44 52.32 44 53 C42.10919048 53.41917468 40.21195776 53.80944146 38.3125 54.1875 C37.25675781 54.40792969 36.20101562 54.62835937 35.11328125 54.85546875 C31.39367118 55.02814826 29.91097584 54.25010565 27 52 C25.61534847 49.23069694 25.80074477 46.88024074 25.71875 43.78515625 C25.66267578 41.92020508 25.66267578 41.92020508 25.60546875 40.01757812 C25.55326172 38.05981445 25.55326172 38.05981445 25.5 36.0625 C25.43121677 33.49077154 25.35848787 30.91914467 25.28125 28.34765625 C25.25095703 27.20304932 25.22066406 26.05844238 25.18945312 24.87915039 C25.11746698 21.93030919 25.11746698 21.93030919 24 19 C20.30414334 16.78248601 18.36991627 16 14 16 C14.66 14.68 15.32 13.36 16 12 C13.86099129 13.47620574 13.86099129 13.47620574 12 16 C11.35456486 19.96718901 11.35456486 19.96718901 11.390625 24.484375 C11.37408875 25.29996887 11.35755249 26.11556274 11.34051514 26.95587158 C11.29203417 29.55399097 11.27066477 32.15152509 11.25 34.75 C11.22184028 36.51435236 11.19191284 38.27867746 11.16015625 40.04296875 C11.08627694 44.36185162 11.03670141 48.68062315 11 53 C1.6330163 55.43097826 1.6330163 55.43097826 -3 55 C-3.99 54.34 -4.98 53.68 -6 53 C-7.29108208 44.09753866 -7.21603924 35.10762205 -7.25 26.125 C-7.270625 24.73796875 -7.29125 23.3509375 -7.3125 21.921875 C-7.31765625 20.58898437 -7.3228125 19.25609375 -7.328125 17.8828125 C-7.3374707 16.68027832 -7.34681641 15.47774414 -7.35644531 14.23876953 C-6.96663484 10.69683407 -6.12806251 8.82813419 -4 6 C-3.34 5.67 -2.68 5.34 -2 5 C-1.27840576 3.35636866 -0.60648579 1.68949614 0 0 Z " fill="#000000" transform="translate(405,670)"/>
<path d="M0 0 C-3.33333333 1.66666667 -6.66666667 3.33333333 -10 5 C-10.33 6.32 -10.66 7.64 -11 9 C-11.99 9.495 -11.99 9.495 -13 10 C-13.33 8.35 -13.66 6.7 -14 5 C-5.37799043 -1.34449761 -5.37799043 -1.34449761 0 0 Z " fill="#000000" transform="translate(462,671)"/>
<path d="M0 0 C0.66 0.33 1.32 0.66 2 1 C2.08726288 6.04155721 2.14048238 11.08291948 2.1875 16.125 C2.21263672 17.55328125 2.23777344 18.9815625 2.26367188 20.453125 C2.27333984 21.83242188 2.28300781 23.21171875 2.29296875 24.6328125 C2.3086792 25.90012207 2.32438965 27.16743164 2.34057617 28.47314453 C1.86035547 33.44609672 0.22606425 36.70387494 -3.1875 40.3125 C-6.77505765 42.46503459 -9.86557111 42.71969974 -14 43 C-13.195625 42.4225 -12.39125 41.845 -11.5625 41.25 C-8.62146796 39.09797845 -8.62146796 39.09797845 -8 35 C-7.77243928 30.3837683 -7.606873 25.77221244 -7.48242188 21.15234375 C-7.12854288 11.25708576 -7.12854288 11.25708576 -5 7 C-3.68 6.34 -2.36 5.68 -1 5 C-0.18828772 2.44480079 -0.18828772 2.44480079 0 0 Z " fill="#000000" transform="translate(530,670)"/>
<path d="M0 0 C-1.2375 0.556875 -2.475 1.11375 -3.75 1.6875 C-8.88944522 4.39899666 -8.88944522 4.39899666 -12 9 C-12.6608962 14.61761771 -12.71714044 19.91745251 -10 25 C-3.40205387 27.90756948 3.56392414 28.94366897 10.64453125 30.15625 C14 31 14 31 18 34 C17.67 36.31 17.34 38.62 17 41 C13.85069107 42.04976964 11.61185544 42.10131595 8.3125 42.0625 C7.31863281 42.05347656 6.32476563 42.04445313 5.30078125 42.03515625 C4.16189453 42.01775391 4.16189453 42.01775391 3 42 C3.99 41.34 4.98 40.68 6 40 C0.12372394 36.92341568 -5.61165048 34.03392437 -11.9375 32 C-16.76416682 30.29113675 -19.45991949 28.6422161 -22 24 C-22.75618123 18.70673138 -22.33926764 15.74638881 -20.125 10.875 C-15.2060494 4.77550126 -8.2288002 -2.05720005 0 0 Z " fill="#000000" transform="translate(567,671)"/>
<path d="M0 0 C0.66 0 1.32 0 2 0 C3.20664793 3.61994379 3.16151373 6.62839888 3.2109375 10.44921875 C3.23929687 11.93744141 3.26765625 13.42566406 3.296875 14.95898438 C3.34863374 18.09168211 3.3929993 21.2245114 3.4296875 24.35742188 C3.460625 25.85208984 3.4915625 27.34675781 3.5234375 28.88671875 C3.54325684 30.25014404 3.56307617 31.61356934 3.58349609 33.01831055 C4.22290385 39.13091377 5.62663962 43.62663962 10 48 C15.92644553 51.06079856 22.5079241 50.63856484 29 50 C33.37847671 47.86221268 33.37847671 47.86221268 36 44 C36.66 44 37.32 44 38 44 C38.495 46.97 38.495 46.97 39 50 C41.97 50.33 44.94 50.66 48 51 C48 51.33 48 51.66 48 52 C35.20408163 55.10204082 35.20408163 55.10204082 31 53 C29.1518025 53.41818393 27.31995894 53.90980572 25.5 54.4375 C17.15506285 56.60618426 9.81512746 57.44389601 2 53 C-2.70826267 49.25479105 -4.31126807 45.73217458 -6 40 C-6.44989906 35.285478 -6.46453208 30.60807083 -6.4375 25.875 C-6.4674707 24.00134766 -6.4674707 24.00134766 -6.49804688 22.08984375 C-6.49220061 11.13394355 -6.49220061 11.13394355 -2 6 C-0.75675853 2.7750792 -0.75675853 2.7750792 0 0 Z " fill="#000000" transform="translate(494,671)"/>
<path d="M0 0 C4.14831497 2.91503214 4.85468538 6.19455095 6 11 C6.22705078 14.54858398 6.22705078 14.54858398 6.1953125 18.24609375 C6.18886719 19.57705078 6.18242187 20.90800781 6.17578125 22.27929688 C6.15902344 23.65150391 6.14226562 25.02371094 6.125 26.4375 C6.11597656 27.83677734 6.10695313 29.23605469 6.09765625 30.67773438 C6.07416866 34.11866619 6.04132086 37.55924377 6 41 C8.97 41.33 11.94 41.66 15 42 C15 42.33 15 42.66 15 43 C9.31853222 44.48592234 4.80583644 45.6256342 -1 44 C-4.27005737 39.63992351 -4.38871271 38.57887217 -4.4765625 33.37109375 C-4.5075 32.08912109 -4.5384375 30.80714844 -4.5703125 29.48632812 C-4.58835937 28.15021484 -4.60640625 26.81410156 -4.625 25.4375 C-4.67593238 22.79028967 -4.73044637 20.14314509 -4.7890625 17.49609375 C-4.80662598 16.32232178 -4.82418945 15.1485498 -4.84228516 13.93920898 C-4.87310735 10.93910915 -4.87310735 10.93910915 -6 8 C-9.3 7.67 -12.6 7.34 -16 7 C-15 3 -15 3 -11 0 C-6.69960303 -1.07509924 -4.28505512 -0.99474494 0 0 Z " fill="#000000" transform="translate(468,680)"/>
<path d="M0 0 C3.875 1.625 3.875 1.625 4.875 3.625 C4.12814941 3.61976318 3.38129883 3.61452637 2.61181641 3.60913086 C-0.75878057 3.58839599 -4.12936414 3.57535101 -7.5 3.5625 C-8.675625 3.55412109 -9.85125 3.54574219 -11.0625 3.53710938 C-12.18398438 3.53388672 -13.30546875 3.53066406 -14.4609375 3.52734375 C-15.49782715 3.52210693 -16.5347168 3.51687012 -17.60302734 3.51147461 C-20.1209668 3.45359185 -20.1209668 3.45359185 -22.125 4.625 C-17.88248618 -3.86002764 -7.99864705 -2.52117355 0 0 Z " fill="#000000" transform="translate(587.125,680.375)"/>
<path d="M0 0 C10.89 0 21.78 0 33 0 C35.31 4.62 37.62 9.24 40 14 C44.74192252 15.63593343 44.74192252 15.63593343 49 15 C49 15.33 49 15.66 49 16 C39 19.84615385 39 19.84615385 33 18 C29.69422007 15.42883783 28.22814622 13.89503519 27.1875 9.8125 C26.795625 8.884375 26.40375 7.95625 26 7 C20.00464251 4.96986196 14.2638059 4.74991632 8 4.875 C7.12988281 4.88402344 6.25976562 4.89304687 5.36328125 4.90234375 C3.2420658 4.92565381 1.12099438 4.96151421 -1 5 C-0.67 3.35 -0.34 1.7 0 0 Z " fill="#000000" transform="translate(620,707)"/>
<path d="M0 0 C0.66 0 1.32 0 2 0 C2 3.3 2 6.6 2 10 C12.76720937 12.90818517 22.88107349 13.3403753 34 13 C29.04496355 17.95503645 20.65066825 18.39576315 13.94921875 18.45898438 C13.05847656 18.45189453 12.16773438 18.44480469 11.25 18.4375 C10.34378906 18.45748047 9.43757812 18.47746094 8.50390625 18.49804688 C2.84302372 18.49391484 -0.7721676 17.86919083 -5 14 C-5.5625 10.5 -5.5625 10.5 -5 7 C-4.01 5.68 -3.02 4.36 -2 3 C-1.34 3 -0.68 3 0 3 C0 2.01 0 1.02 0 0 Z " fill="#000000" transform="translate(552,709)"/>
</svg>
