<?xml version="1.0" standalone="no"?>
<!DOCTYPE svg PUBLIC "-//W3C//DTD SVG 20010904//EN"
 "http://www.w3.org/TR/2001/REC-SVG-20010904/DTD/svg10.dtd">
<svg version="1.0" xmlns="http://www.w3.org/2000/svg"
 width="1024.000000pt" height="1024.000000pt" viewBox="0 0 1024.000000 1024.000000"
 preserveAspectRatio="xMidYMid meet">

<g transform="translate(0.000000,1024.000000) scale(0.100000,-0.100000)"
fill="#000000" stroke="none">
<path d="M4495 7111 c-129 -54 -182 -83 -292 -158 -145 -98 -248 -188 -344
-299 -74 -85 -159 -196 -159 -207 0 -2 -26 -50 -58 -108 -71 -129 -92 -181
-137 -341 -48 -173 -58 -254 -59 -458 -1 -153 3 -192 27 -310 34 -167 63 -249
156 -437 46 -93 68 -112 129 -111 36 0 47 5 67 33 14 17 25 35 25 38 0 4 -18
35 -39 70 -75 122 -138 289 -178 472 -28 125 -25 485 5 615 26 113 63 230 100
320 25 61 119 228 166 295 12 16 27 41 34 55 l13 25 -25 -24 c-32 -30 -44 -22
-21 13 9 14 14 30 10 36 -11 18 178 213 285 295 83 63 241 154 333 191 45 18
75 33 67 33 -8 0 -55 -17 -105 -38z m-605 -522 c-7 -11 -14 -19 -16 -16 -7 7
7 37 17 37 6 0 5 -9 -1 -21z"/>
<path d="M4993 7129 c-176 -17 -352 -66 -503 -139 -45 -23 -81 -43 -79 -45 3
-2 31 9 64 25 62 29 199 77 244 85 125 21 175 26 301 31 164 7 235 -1 404 -47
198 -54 284 -94 477 -220 96 -62 272 -230 350 -334 57 -76 185 -300 208 -366
17 -47 59 -198 82 -294 25 -107 27 -414 3 -531 -23 -112 -81 -309 -110 -370
-13 -28 -24 -54 -24 -57 0 -21 -181 -296 -195 -297 -5 -1 -27 -25 -48 -53 -95
-133 -267 -262 -472 -353 -38 -17 -81 -36 -95 -42 l-25 -12 25 6 c124 28 370
167 506 286 98 86 207 208 271 303 104 155 184 342 231 540 25 102 27 127 27
335 0 199 -3 237 -23 329 -77 341 -260 655 -504 859 -263 220 -514 328 -847
361 -114 12 -147 12 -268 0z"/>
<path d="M4374 6924 c-18 -14 -18 -15 4 -4 12 6 22 13 22 15 0 8 -5 6 -26 -11z"/>
<path d="M4643 6734 c21 -11 26 -20 21 -38 -4 -17 2 -28 27 -47 71 -54 114
-97 146 -146 l33 -53 -25 -40 c-14 -22 -30 -40 -35 -40 -18 0 -52 -46 -96
-130 -76 -143 -203 -388 -281 -540 -42 -80 -91 -174 -110 -210 -20 -36 -48
-87 -63 -115 -31 -58 -71 -137 -91 -180 -7 -16 -23 -46 -35 -65 -30 -50 -100
-181 -153 -285 -120 -234 -247 -370 -418 -447 l-48 -22 30 -7 c17 -4 26 -8 20
-9 -30 -6 53 -18 138 -19 118 -1 277 21 349 50 123 48 258 158 337 272 24 35
251 482 285 562 3 6 8 5 13 -2 5 -7 23 -11 41 -9 18 3 45 1 61 -4 25 -7 29 -6
23 8 -3 10 9 4 31 -15 43 -38 72 -36 55 3 -6 13 -18 24 -27 24 -9 0 -24 7 -34
15 -11 7 -24 12 -31 9 -7 -3 -12 6 -13 23 0 16 1 20 4 11 2 -9 10 -15 18 -12
7 3 16 1 20 -5 3 -6 12 -11 18 -11 7 0 6 4 -3 10 -13 9 -13 10 1 10 8 0 20 -5
27 -12 9 -9 12 -9 12 0 0 6 -8 16 -17 21 -10 6 -13 11 -7 11 14 0 87 -78 104
-111 7 -13 21 -31 33 -40 20 -16 20 -17 -16 -71 -21 -30 -40 -68 -43 -85 -11
-56 -5 -57 357 -63 324 -5 329 -5 351 -28 13 -12 55 -84 93 -159 42 -83 81
-144 97 -157 52 -38 368 -32 355 7 -2 8 -49 14 -142 17 l-137 5 -84 174 c-45
96 -87 178 -91 182 -5 5 -174 9 -376 9 -202 1 -367 5 -367 9 0 22 178 268 227
314 41 38 80 47 212 47 63 0 112 2 109 6 -5 5 -436 6 -483 1 -15 -1 -21 5 -23
26 -4 30 17 37 37 13 17 -20 66 -6 66 20 0 17 -11 20 -115 26 -185 12 -195 15
-37 15 146 0 178 5 145 24 -24 13 -20 58 4 51 10 -2 18 -14 18 -25 0 -11 3
-18 6 -14 8 7 54 -46 54 -63 0 -6 8 -19 17 -28 13 -14 41 -18 145 -21 155 -4
165 -1 142 34 -17 25 -19 26 -125 24 -121 -2 -125 0 -211 88 l-47 48 -135 -3
c-75 -2 -136 -6 -136 -10 0 -4 45 -6 101 -4 124 4 139 0 113 -30 -17 -19 -17
-21 -2 -15 10 3 20 2 23 -3 4 -6 -50 -10 -140 -10 -88 0 -144 -4 -140 -9 3 -5
1 -12 -5 -16 -6 -4 -8 -10 -5 -15 3 -5 -1 -12 -8 -17 -8 -4 -18 -18 -22 -31
l-7 -23 94 2 c123 2 121 3 115 -21 -7 -28 8 -34 85 -32 76 3 90 -8 69 -54 -14
-32 -41 -42 -53 -21 -12 22 -28 22 -28 0 0 -12 -23 5 -68 50 l-68 67 -83 0
c-75 0 -82 2 -76 18 3 9 12 34 18 55 7 20 15 37 18 37 4 0 9 7 13 15 3 8 2 14
-2 14 -22 -4 -31 5 -46 41 -9 22 -21 40 -28 40 -14 0 -58 59 -58 78 0 6 -8 17
-18 24 -21 15 -36 45 -34 68 1 10 0 11 -4 3 -11 -26 -31 -14 -26 15 5 24 4 26
-11 13 -10 -8 -17 -9 -17 -3 0 6 5 14 10 17 6 3 10 13 10 20 0 16 18 54 168
352 57 112 107 215 113 229 6 16 13 24 19 18 5 -5 57 -103 116 -219 59 -115
124 -239 145 -274 21 -35 46 -84 56 -110 9 -25 29 -68 44 -96 23 -42 27 -59
24 -108 -5 -84 15 -104 118 -113 82 -7 93 0 63 41 -11 15 -22 17 -70 12 -61
-6 -81 8 -57 37 10 12 16 12 39 0 31 -16 33 -16 50 -5 11 6 -32 99 -184 402
-108 217 -218 426 -243 464 -53 82 -160 192 -223 229 -37 22 -130 57 -148 55
-3 0 7 -7 23 -15z m337 -1254 c19 -12 -52 -12 -90 0 -20 6 -15 8 25 9 28 0 57
-4 65 -9z m-227 -129 c-5 -18 2 -20 81 -23 47 -2 87 1 89 5 3 10 137 -117 137
-130 0 -13 -22 -33 -37 -33 -8 0 -17 9 -21 19 -4 11 -32 45 -62 76 l-54 58
-82 -6 c-67 -4 -82 -2 -78 9 2 8 6 21 9 29 7 22 24 18 18 -4z m-31 -63 c-19
-19 -14 -26 21 -31 28 -3 26 -4 -10 -5 -24 -1 -43 3 -43 8 0 14 22 39 35 40 5
0 4 -5 -3 -12z"/>
<path d="M5127 5673 c-9 -15 2 -43 17 -43 18 0 67 -57 72 -83 2 -12 19 -37 38
-56 34 -34 35 -34 140 -39 58 -2 106 -1 106 3 0 3 -4 15 -10 25 -9 16 -19 17
-89 13 l-80 -6 -66 71 c-37 39 -75 74 -85 77 -9 3 -21 15 -27 27 -6 14 -12 18
-16 11z"/>
<path d="M5120 5595 c0 -9 6 -12 15 -9 8 4 15 10 15 15 0 5 -7 9 -15 9 -8 0
-15 -7 -15 -15z"/>
<path d="M4170 4363 c-75 -28 -83 -33 -69 -49 10 -13 10 -17 0 -24 -18 -11 -5
-47 30 -81 28 -28 103 -74 231 -143 277 -149 739 -201 1063 -120 117 30 395
135 395 149 0 2 -30 -8 -67 -22 -149 -57 -393 -114 -393 -92 0 5 10 9 23 10
21 1 21 1 -3 9 -22 7 -22 8 -5 10 11 2 2 6 -20 10 l-40 7 35 3 35 3 -35 7 -35
7 35 2 c19 1 42 6 50 12 11 8 3 9 -30 4 -137 -19 -192 -24 -260 -25 -217 -1
-475 66 -670 172 -81 44 -183 111 -214 140 -20 19 -30 20 -56 11z m1107 -329
c-3 -3 -12 -4 -19 -1 -8 3 -5 6 6 6 11 1 17 -2 13 -5z m0 -20 c-3 -3 -12 -4
-19 -1 -8 3 -5 6 6 6 11 1 17 -2 13 -5z"/>
<path d="M5545 4100 c-3 -6 1 -7 9 -4 18 7 21 14 7 14 -6 0 -13 -4 -16 -10z"/>
<path d="M5485 4090 c-13 -6 -15 -9 -5 -9 8 0 22 4 30 9 18 12 2 12 -25 0z"/>
<path d="M3742 3750 c-3 -8 -17 -28 -31 -43 l-26 -28 -5 -267 c-6 -295 -2
-344 26 -370 70 -64 122 -76 214 -48 l45 13 0 57 0 56 -42 0 c-74 0 -74 2 -71
343 l3 295 -54 4 c-41 2 -55 -1 -59 -12z"/>
<path d="M3221 3654 c-39 -40 -106 -159 -126 -223 -4 -13 -36 -81 -71 -152
-58 -117 -104 -232 -104 -259 0 -25 48 -33 110 -19 l62 14 28 62 28 62 109 -2
c129 -4 156 -16 208 -93 41 -62 71 -73 140 -50 25 9 57 16 70 16 23 0 34 14
18 22 -10 4 -83 160 -151 318 -27 63 -73 168 -102 233 l-53 117 -61 -1 c-59 0
-63 -2 -105 -45z m93 -273 c10 -21 16 -49 14 -62 -3 -22 -8 -24 -60 -27 -32
-2 -58 0 -58 4 0 3 12 33 26 65 32 71 53 76 78 20z"/>
<path d="M6238 3639 c-32 -34 -58 -69 -58 -80 0 -10 -4 -19 -9 -19 -5 0 -11
-14 -15 -30 -3 -17 -22 -65 -42 -108 -20 -42 -63 -144 -96 -226 -68 -167 -68
-182 -2 -180 22 1 55 6 74 12 35 10 35 10 -18 11 -51 1 -53 2 -46 24 3 12 12
33 19 47 34 67 256 593 253 600 -2 5 -29 -18 -60 -51z"/>
<path d="M6356 3552 c-2 -4 -14 -32 -25 -61 -17 -46 -18 -56 -6 -65 7 -6 20
-37 28 -69 13 -52 12 -59 -2 -67 -11 -6 7 -9 57 -10 40 0 72 4 72 10 0 20
-106 270 -115 270 -2 0 -6 -3 -9 -8z"/>
<path d="M4045 3531 c-3 -2 -5 -12 -5 -21 0 -9 -11 -29 -24 -43 -35 -38 -39
-70 -32 -266 6 -164 8 -177 28 -194 15 -12 31 -17 48 -13 14 4 41 9 60 12 l35
6 -3 166 c-2 139 0 173 14 205 9 20 21 37 26 37 5 0 6 6 2 13 -4 6 -4 9 1 5 4
-4 16 -3 26 3 11 6 19 6 19 0 0 -5 -6 -11 -14 -14 -8 -3 -19 -15 -25 -26 -10
-18 -8 -19 21 -15 28 5 38 0 63 -26 l30 -31 1 -150 c1 -190 5 -196 132 -174
56 10 54 25 -4 25 -30 0 -43 4 -38 11 10 17 5 300 -7 336 -15 47 -68 83 -123
83 -25 0 -46 4 -46 9 0 5 9 7 20 4 11 -3 20 0 20 6 0 6 -4 11 -10 11 -15 0 26
38 47 43 10 3 4 5 -15 6 -40 1 -107 -32 -122 -60 -14 -25 -25 -17 -25 19 0 25
-4 27 -48 32 -26 4 -50 4 -52 1z"/>
<path d="M4561 3529 c-38 -15 -81 -49 -81 -65 0 -21 12 -17 50 19 19 19 49 39
65 45 21 7 24 10 10 11 -11 0 -31 -5 -44 -10z"/>
<path d="M5297 3534 c-4 -4 -7 -14 -7 -23 0 -9 -11 -26 -24 -38 -21 -20 -24
-34 -30 -143 -9 -162 -13 -178 -50 -202 l-31 -20 40 7 c48 8 79 26 102 62 15
22 19 55 21 186 3 145 -2 190 -21 171z"/>
<path d="M5603 3521 c-53 -25 -139 -108 -148 -144 -10 -40 3 -96 29 -121 12
-13 44 -31 71 -41 28 -9 64 -24 82 -31 17 -8 34 -14 38 -14 4 0 21 -10 38 -22
l31 -22 -24 -7 c-18 -5 -8 -7 30 -8 65 -1 100 18 100 54 0 34 -30 49 -134 69
-49 9 -101 23 -117 32 -38 19 -59 62 -59 123 0 59 31 104 95 132 22 10 33 19
25 19 -8 0 -34 -9 -57 -19z"/>
<path d="M4940 3506 c0 -14 -5 -28 -10 -31 -6 -4 -20 -25 -31 -47 -19 -37 -21
-55 -17 -177 3 -122 6 -141 28 -181 50 -90 128 -115 263 -83 57 13 93 16 115
11 20 -5 40 -5 51 2 11 5 32 11 48 12 18 0 12 3 -17 7 -42 6 -45 8 -48 39 -2
17 -7 32 -13 32 -5 0 -9 -4 -9 -9 0 -6 -16 -22 -36 -37 -29 -23 -45 -27 -93
-27 -108 1 -168 39 -190 121 -6 20 -13 117 -17 215 -3 97 -10 177 -15 177 -5
0 -9 -11 -9 -24z"/>
<path d="M5695 3440 c-12 -4 -26 -14 -32 -21 -9 -12 11 -14 122 -14 103 0 131
2 124 12 -22 26 -168 42 -214 23z"/>
<path d="M4548 3410 c-28 -26 -30 -30 -13 -29 40 3 54 -1 81 -24 27 -24 27
-24 25 -152 -1 -70 3 -143 9 -160 15 -44 46 -60 96 -46 21 6 50 12 64 15 14 2
4 4 -22 5 l-48 1 -1 128 c-1 248 -18 292 -111 292 -39 0 -53 -5 -80 -30z"/>
<path d="M6197 3164 c-4 -4 -7 -14 -7 -23 0 -14 14 -16 102 -13 122 3 158 -10
192 -72 12 -22 34 -49 49 -60 26 -19 29 -20 80 -3 28 9 59 18 67 21 8 2 -7 5
-35 5 l-50 1 -30 73 -31 72 -165 3 c-91 1 -168 -1 -172 -4z"/>
<path d="M5520 3136 c0 -8 -9 -21 -20 -29 -12 -8 -23 -30 -26 -48 -5 -28 -1
-39 21 -59 23 -22 37 -25 116 -29 60 -2 112 2 157 14 102 24 110 36 20 28 -76
-6 -175 7 -224 29 -21 10 -24 18 -24 60 0 26 -4 48 -10 48 -5 0 -10 -6 -10
-14z"/>
</g>
</svg>
